<svg width="220" height="164" viewBox="0 0 220 164" fill="none" xmlns="http://www.w3.org/2000/svg">
<path d="M174 46H46V118H174V46Z" stroke="#20B3EF" stroke-width="4" stroke-miterlimit="10" stroke-linecap="round" stroke-linejoin="round"/>
<path d="M166 54H54V110H166V54Z" stroke="#20B3EF" stroke-width="4" stroke-miterlimit="10" stroke-linecap="round" stroke-linejoin="round"/>
<path d="M158 82H134" stroke="#20B3EF" stroke-width="4" stroke-miterlimit="10" stroke-linecap="round" stroke-linejoin="round"/>
<path d="M86 82H62" stroke="#20B3EF" stroke-width="4" stroke-miterlimit="10" stroke-linecap="round" stroke-linejoin="round"/>
<path d="M110 98C118.837 98 126 90.8366 126 82C126 73.1634 118.837 66 110 66C101.163 66 94 73.1634 94 82C94 90.8366 101.163 98 110 98Z" stroke="#20B3EF" stroke-width="4" stroke-miterlimit="10" stroke-linecap="round" stroke-linejoin="round"/>
<path d="M110 46V10" stroke="#20B3EF" stroke-width="4" stroke-miterlimit="10" stroke-linecap="round" stroke-linejoin="round"/>
<path d="M110 10C112.209 10 114 8.20914 114 6C114 3.79086 112.209 2 110 2C107.791 2 106 3.79086 106 6C106 8.20914 107.791 10 110 10Z" stroke="#20B3EF" stroke-width="4" stroke-miterlimit="10" stroke-linecap="round" stroke-linejoin="round"/>
<path d="M110 118V154" stroke="#20B3EF" stroke-width="4" stroke-miterlimit="10" stroke-linecap="round" stroke-linejoin="round"/>
<path d="M110 162C112.209 162 114 160.209 114 158C114 155.791 112.209 154 110 154C107.791 154 106 155.791 106 158C106 160.209 107.791 162 110 162Z" stroke="#20B3EF" stroke-width="4" stroke-miterlimit="10" stroke-linecap="round" stroke-linejoin="round"/>
<path d="M102 46V38" stroke="#20B3EF" stroke-width="4" stroke-miterlimit="10" stroke-linecap="round" stroke-linejoin="round"/>
<path d="M102 38L94 30" stroke="#20B3EF" stroke-width="4" stroke-miterlimit="10" stroke-linecap="round" stroke-linejoin="round"/>
<path d="M94 30V22" stroke="#20B3EF" stroke-width="4" stroke-miterlimit="10" stroke-linecap="round" stroke-linejoin="round"/>
<path d="M94 22C96.2091 22 98 20.2091 98 18C98 15.7909 96.2091 14 94 14C91.7909 14 90 15.7909 90 18C90 20.2091 91.7909 22 94 22Z" stroke="#20B3EF" stroke-width="4" stroke-miterlimit="10" stroke-linecap="round" stroke-linejoin="round"/>
<path d="M118 126V118" stroke="#20B3EF" stroke-width="4" stroke-miterlimit="10" stroke-linecap="round" stroke-linejoin="round"/>
<path d="M118 126L126 134" stroke="#20B3EF" stroke-width="4" stroke-miterlimit="10" stroke-linecap="round" stroke-linejoin="round"/>
<path d="M126 134V142" stroke="#20B3EF" stroke-width="4" stroke-miterlimit="10" stroke-linecap="round" stroke-linejoin="round"/>
<path d="M126 150C128.209 150 130 148.209 130 146C130 143.791 128.209 142 126 142C123.791 142 122 143.791 122 146C122 148.209 123.791 150 126 150Z" stroke="#20B3EF" stroke-width="4" stroke-miterlimit="10" stroke-linecap="round" stroke-linejoin="round"/>
<path d="M118 46V38" stroke="#20B3EF" stroke-width="4" stroke-miterlimit="10" stroke-linecap="round" stroke-linejoin="round"/>
<path d="M118 38L126 30" stroke="#20B3EF" stroke-width="4" stroke-miterlimit="10" stroke-linecap="round" stroke-linejoin="round"/>
<path d="M126 30V22" stroke="#20B3EF" stroke-width="4" stroke-miterlimit="10" stroke-linecap="round" stroke-linejoin="round"/>
<path d="M126 22C128.209 22 130 20.2091 130 18C130 15.7909 128.209 14 126 14C123.791 14 122 15.7909 122 18C122 20.2091 123.791 22 126 22Z" stroke="#20B3EF" stroke-width="4" stroke-miterlimit="10" stroke-linecap="round" stroke-linejoin="round"/>
<path d="M102 126V118" stroke="#20B3EF" stroke-width="4" stroke-miterlimit="10" stroke-linecap="round" stroke-linejoin="round"/>
<path d="M102 126L94 134" stroke="#20B3EF" stroke-width="4" stroke-miterlimit="10" stroke-linecap="round" stroke-linejoin="round"/>
<path d="M94 134V142" stroke="#20B3EF" stroke-width="4" stroke-miterlimit="10" stroke-linecap="round" stroke-linejoin="round"/>
<path d="M94 150C96.2091 150 98 148.209 98 146C98 143.791 96.2091 142 94 142C91.7909 142 90 143.791 90 146C90 148.209 91.7909 150 94 150Z" stroke="#20B3EF" stroke-width="4" stroke-miterlimit="10" stroke-linecap="round" stroke-linejoin="round"/>
</svg>
