<svg width="220" height="164" viewBox="0 0 220 164" fill="none" xmlns="http://www.w3.org/2000/svg">
<path d="M161.652 55.8199H58.174V138.813H161.652V55.8199Z" stroke="#20B3EF" stroke-width="4" stroke-miterlimit="10" stroke-linecap="round" stroke-linejoin="round"/>
<path d="M166.826 35.0717H53V55.8199H166.826V35.0717Z" stroke="#20B3EF" stroke-width="4" stroke-miterlimit="10" stroke-linecap="round" stroke-linejoin="round"/>
<path d="M89.2174 35.0717V138.813" stroke="#20B3EF" stroke-width="4" stroke-miterlimit="10" stroke-linecap="round" stroke-linejoin="round"/>
<path d="M58.174 76.4615H161.652" stroke="#20B3EF" stroke-width="4" stroke-miterlimit="10" stroke-linecap="round" stroke-linejoin="round"/>
<path d="M89.3247 34.8424C89.3247 34.8424 71.2438 33.0998 66.872 29.369C62.4989 25.6307 61.9722 19.0506 65.6973 14.6665C69.4235 10.2821 75.9882 9.7554 80.3625 13.4888C84.7331 17.2219 89.3247 34.8424 89.3247 34.8424Z" stroke="#20B3EF" stroke-width="4" stroke-miterlimit="10" stroke-linecap="round" stroke-linejoin="round"/>
<path d="M89.326 34.8424C89.326 34.8424 107.407 33.0998 111.779 29.369C116.152 25.6307 116.678 19.0506 112.954 14.6665C109.227 10.2821 102.662 9.7554 98.288 13.4888C93.9176 17.2219 89.326 34.8424 89.326 34.8424Z" stroke="#20B3EF" stroke-width="4" stroke-miterlimit="10" stroke-linecap="round" stroke-linejoin="round"/>
<path d="M88.4735 82.9923C88.4735 82.9923 94.64 83.3677 101.212 92.4207C107.786 101.473 114.185 96.9405 115.503 95.2164C116.824 93.4973 116.453 87.8413 110.008 88.3937" stroke="#20B3EF" stroke-width="4" stroke-miterlimit="10" stroke-linecap="round" stroke-linejoin="round"/>
<path d="M17.4824 77.3063L68.0607 101.313L93.5009 93.9253L82.9519 69.7725L32.3696 45.7635L17.4824 77.3063Z" fill="white" stroke="#20B3EF" stroke-width="4" stroke-miterlimit="10" stroke-linecap="round" stroke-linejoin="round"/>
<path d="M68.7174 82.7496C67.2931 85.763 68.5796 89.34 71.5868 90.7415C74.5917 92.14 78.1842 90.8371 79.6078 87.8243C81.0288 84.8161 79.7448 81.2345 76.7316 79.8304C73.7273 78.4341 70.1404 79.7424 68.7174 82.7496Z" fill="white" stroke="#20B3EF" stroke-width="4" stroke-miterlimit="10" stroke-linecap="round" stroke-linejoin="round"/>
<path d="M67.8238 111.437C67.8238 111.437 69.2299 115.34 73.1441 113.915C77.0617 112.49 75.6595 108.588 75.6595 108.588C75.6595 108.588 75.6756 105.55 68.9395 102.207C62.203 98.8668 62.3348 86.0188 74.1603 85.2863" stroke="#20B3EF" stroke-width="4" stroke-miterlimit="10" stroke-linecap="round" stroke-linejoin="round"/>
</svg>
