<svg width="28" height="28" viewBox="0 0 28 28" fill="none" xmlns="http://www.w3.org/2000/svg">
<circle cx="14" cy="14" r="14" fill="#848FAA"/>
<path fill-rule="evenodd" clip-rule="evenodd" d="M17.0624 10.0197C17.0624 10.5107 17.4613 10.9088 17.9534 10.9088C18.4455 10.9088 18.8444 10.5107 18.8444 10.0197C18.8444 9.52874 18.4455 9.1307 17.9534 9.1307C17.4613 9.1307 17.0624 9.52874 17.0624 10.0197ZM11.5149 13.9746C11.5149 12.6107 12.623 11.505 13.9899 11.505C15.3568 11.505 16.465 12.6107 16.465 13.9746C16.465 15.3385 15.3568 16.4441 13.9899 16.4441C12.623 16.4441 11.5149 15.3385 11.5149 13.9746ZM13.9899 17.7788C11.8842 17.7788 10.1771 16.0755 10.1771 13.9744C10.1771 11.8732 11.8842 10.17 13.9899 10.17C16.0957 10.17 17.8028 11.8732 17.8028 13.9744C17.8028 16.0755 16.0957 17.7788 13.9899 17.7788ZM20.0175 7.98248C19.7187 7.6837 19.4343 7.49866 19.0357 7.34378C18.7348 7.22683 18.2827 7.08775 17.4502 7.04977C16.5499 7.00869 16.2798 7 14 7C11.7201 7 11.4501 7.00869 10.5497 7.04977C9.71723 7.08775 9.26512 7.22683 8.96425 7.34378C8.56569 7.49866 8.28127 7.6837 7.98248 7.98248C7.6837 8.28127 7.49866 8.56572 7.34375 8.96425C7.22683 9.26512 7.08775 9.71726 7.04977 10.5497C7.00869 11.4501 7 11.7201 7 14C7 16.2799 7.00869 16.5499 7.04977 17.4503C7.08775 18.2827 7.22683 18.7349 7.34375 19.0357C7.49866 19.4343 7.6837 19.7187 7.98248 20.0175C8.28127 20.3163 8.56569 20.5013 8.96425 20.6562C9.26512 20.7731 9.71723 20.9122 10.5497 20.9502C11.4499 20.9913 11.72 21 14 21C16.28 21 16.55 20.9913 17.4502 20.9502C18.2827 20.9122 18.7348 20.7731 19.0357 20.6562C19.4343 20.5013 19.7187 20.3163 20.0175 20.0175C20.3163 19.7187 20.5013 19.4343 20.6562 19.0357C20.7731 18.7349 20.9122 18.2827 20.9502 17.4503C20.9913 16.5499 21 16.2799 21 14C21 11.7201 20.9913 11.4501 20.9502 10.5497C20.9122 9.71726 20.7731 9.26512 20.6562 8.96425C20.5013 8.56572 20.3163 8.28127 20.0175 7.98248Z" fill="#1B2338"/>
</svg>
