<svg width="152" height="140" viewBox="0 0 152 140" fill="none" xmlns="http://www.w3.org/2000/svg">
<path d="M93.1069 37.1019C93.1135 37.1195 93.1166 37.1278 93.1269 37.1538C93.1498 37.2103 93.1789 37.2803 93.222 37.3734C93.2223 37.3738 93.2228 37.3747 93.223 37.3753C93.2782 37.4947 93.3589 37.6493 93.4535 37.8194C93.4688 37.847 93.4748 37.8634 93.4912 37.8921C93.5378 37.9734 93.589 38.0594 93.645 38.1498L96.6322 42.9542L94.7672 44.7798L94.7674 44.7799L94.7672 44.7799L99.5495 52.4713L101.667 53.6884L104.634 50.7796C104.983 50.9079 105.341 51.014 105.703 51.1092C105.803 51.1355 105.903 51.1589 106.003 51.1826C106.303 51.2535 106.607 51.313 106.914 51.3608C106.989 51.3725 107.063 51.3878 107.138 51.398C107.511 51.449 107.888 51.4815 108.269 51.4982C108.361 51.5021 108.455 51.5012 108.548 51.5032C108.855 51.5097 109.164 51.5048 109.474 51.4886C109.539 51.4853 109.602 51.4899 109.666 51.4856C109.713 51.4824 109.761 51.474 109.808 51.4701C110.006 51.4546 110.204 51.4308 110.403 51.4059C110.501 51.3935 110.599 51.3887 110.698 51.374C110.737 51.3682 110.776 51.3592 110.814 51.353C110.915 51.3372 111.015 51.3171 111.115 51.2988C111.238 51.2764 111.361 51.2584 111.484 51.2322C111.563 51.2157 111.641 51.1942 111.72 51.1761C111.796 51.1585 111.872 51.1405 111.949 51.1215C112.012 51.1055 112.076 51.0927 112.14 51.0757C112.334 51.0242 112.528 50.9679 112.722 50.9072C112.734 50.9034 112.746 50.899 112.757 50.8952C112.781 50.8876 112.805 50.8786 112.83 50.8709C112.969 50.8256 113.109 50.78 113.248 50.7299C113.394 50.6776 113.539 50.6216 113.684 50.5639C113.695 50.5595 113.706 50.5557 113.717 50.5512C113.723 50.5489 113.729 50.5469 113.735 50.5445C113.892 50.4812 114.049 50.4148 114.206 50.3449C114.342 50.2842 114.477 50.2203 114.612 50.155C114.621 50.1506 114.63 50.1469 114.639 50.1426C114.645 50.1396 114.651 50.137 114.657 50.1339C114.806 50.061 114.955 49.9849 115.104 49.906C115.25 49.828 115.396 49.7471 115.541 49.6633C115.541 49.663 115.542 49.6626 115.543 49.6622C115.544 49.6616 115.545 49.661 115.546 49.6605C115.697 49.5727 115.849 49.4817 115.999 49.3872C116.138 49.3003 116.276 49.2095 116.413 49.1171C116.424 49.1097 116.435 49.103 116.446 49.0956C116.452 49.0915 116.458 49.0878 116.464 49.0838C116.626 48.9743 116.786 48.8606 116.945 48.7432C117.037 48.6756 117.127 48.603 117.218 48.5328C117.269 48.4935 117.32 48.4552 117.371 48.4152C117.408 48.3862 117.445 48.3594 117.482 48.3299C117.683 48.1674 117.883 47.9982 118.081 47.8225C118.096 47.8088 118.111 47.7933 118.126 47.7795C118.204 47.7103 118.279 47.635 118.355 47.5637C118.504 47.4255 118.654 47.2906 118.8 47.1447C118.865 47.0794 118.93 47.0132 118.995 46.9463C119.282 46.649 119.542 46.3577 119.784 46.0699C119.804 46.0459 119.83 46.0206 119.85 45.9967C119.975 45.8463 120.087 45.6986 120.201 45.5506C120.245 45.4935 120.294 45.4354 120.336 45.3787C120.509 45.1457 120.668 44.9157 120.814 44.6889C120.85 44.6319 120.88 44.5765 120.915 44.52C121.02 44.3498 121.121 44.1806 121.211 44.0137C121.254 43.9337 121.292 43.855 121.332 43.7759C121.379 43.6827 121.431 43.5882 121.474 43.4961C121.49 43.4622 121.498 43.4301 121.513 43.3964C121.634 43.128 121.741 42.8627 121.826 42.6027C121.829 42.5948 121.833 42.5863 121.836 42.5783C121.836 42.5767 121.837 42.5752 121.837 42.5736C121.912 42.3439 121.973 42.1175 122.023 41.8941C122.024 41.8904 122.026 41.8865 122.026 41.8826C122.072 41.6759 122.108 41.4718 122.135 41.27C122.135 41.2689 122.135 41.2681 122.135 41.2669C122.138 41.2481 122.138 41.2302 122.14 41.2115C122.162 41.0385 122.178 40.8667 122.187 40.6975C122.187 40.687 122.187 40.6767 122.187 40.6659C122.191 40.5901 122.188 40.5159 122.189 40.4407C122.191 40.3355 122.195 40.2294 122.192 40.1257C122.192 40.1089 122.19 40.0926 122.189 40.0758C122.185 39.9705 122.175 39.8675 122.167 39.7636C122.161 39.6845 122.159 39.6038 122.15 39.5256C122.149 39.511 122.145 39.497 122.144 39.4824C122.121 39.2828 122.091 39.0857 122.054 38.8912C122.052 38.881 122.051 38.8704 122.049 38.8604C122.049 38.8596 122.049 38.8587 122.049 38.8578C122.004 38.624 121.947 38.3945 121.886 38.1675C121.88 38.1441 121.876 38.1195 121.869 38.096C121.861 38.0663 121.849 38.0381 121.841 38.0084C121.753 37.7003 121.654 37.3977 121.546 37.1015C121.542 37.09 121.539 37.0778 121.534 37.0664C121.528 37.0473 121.519 37.0301 121.512 37.0109C121.315 36.4807 121.097 35.9683 120.882 35.4713C120.668 34.9766 120.462 34.4981 120.287 34.0303C120.272 33.9904 120.257 33.9507 120.243 33.911C120.161 33.6877 120.087 33.4666 120.025 33.2482C120.012 33.2026 120.003 33.1582 119.991 33.1131C119.961 32.9977 119.932 32.8827 119.909 32.7685C119.889 32.6697 119.873 32.5717 119.859 32.4737C119.854 32.4363 119.846 32.3985 119.842 32.3611C119.826 32.2272 119.817 32.0938 119.814 31.961C119.813 31.9365 119.815 31.912 119.814 31.8875C119.814 31.7762 119.819 31.6652 119.83 31.5546C119.832 31.5277 119.834 31.5003 119.837 31.4734C119.852 31.3465 119.874 31.2201 119.904 31.0943C119.911 31.0678 119.919 31.0417 119.926 31.0155C119.949 30.9296 119.979 30.8442 120.01 30.7586C120.042 30.6684 120.081 30.5781 120.122 30.4883C120.15 30.4297 120.177 30.3713 120.209 30.313C120.305 30.1323 120.417 29.9518 120.556 29.7718C120.662 29.635 120.779 29.4982 120.911 29.3616C121.105 29.1614 121.309 28.9817 121.52 28.8197C121.527 28.8135 121.535 28.8076 121.543 28.8016C121.752 28.6428 121.969 28.5025 122.191 28.3809C122.196 28.3778 122.201 28.3751 122.206 28.3721C122.433 28.249 122.665 28.1445 122.9 28.0598L122.901 28.0598C122.93 28.0492 122.96 28.0454 122.989 28.0354L126.267 33.3071L128.619 34.7001L134.649 29.1513L131.664 24.349L133.989 22.0838L129.207 14.3923L127.125 13.1934L123.609 16.6128C123.233 16.4416 122.846 16.2991 122.455 16.1703C122.37 16.1421 122.285 16.1138 122.199 16.0877C121.813 15.9708 121.423 15.8716 121.027 15.7968C120.965 15.7851 120.903 15.7781 120.841 15.7675C120.479 15.7054 120.114 15.6622 119.746 15.6359C119.67 15.6305 119.595 15.6222 119.518 15.6183C119.115 15.5978 118.709 15.6009 118.301 15.6244C118.266 15.6264 118.231 15.6225 118.196 15.625C118.103 15.6311 118.01 15.6466 117.917 15.6552C117.76 15.6697 117.603 15.6851 117.446 15.7061C117.392 15.7133 117.339 15.7155 117.286 15.7234C117.152 15.7434 117.018 15.7711 116.885 15.7959C116.813 15.8091 116.742 15.8201 116.67 15.8347C116.646 15.8396 116.622 15.8426 116.598 15.8477C116.405 15.8887 116.212 15.9349 116.02 15.9862C115.978 15.9972 115.936 16.0109 115.894 16.0225C115.85 16.0347 115.806 16.048 115.763 16.0608C115.685 16.0835 115.606 16.1041 115.528 16.1286C115.375 16.1768 115.222 16.2282 115.069 16.2831C115.043 16.2925 115.016 16.3035 114.99 16.3134C114.96 16.3244 114.93 16.3362 114.9 16.3474C114.812 16.3806 114.724 16.4127 114.636 16.4482C114.5 16.5029 114.365 16.5602 114.231 16.6201C114.194 16.6364 114.158 16.6544 114.122 16.6711C114.092 16.6848 114.062 16.6992 114.032 16.7131C113.965 16.7443 113.898 16.7741 113.831 16.8066C113.7 16.8706 113.57 16.9371 113.44 17.0063C113.382 17.0372 113.325 17.0706 113.267 17.1025C113.237 17.1192 113.207 17.1357 113.177 17.1525C113.134 17.177 113.09 17.1997 113.047 17.2247C112.914 17.3016 112.782 17.3813 112.65 17.4638C112.575 17.5108 112.501 17.5611 112.427 17.6099C112.395 17.6304 112.364 17.6503 112.333 17.6712C112.299 17.6932 112.266 17.7139 112.233 17.7363C112.089 17.8344 111.945 17.936 111.802 18.0414C111.739 18.0878 111.677 18.1384 111.614 18.1863C111.569 18.221 111.524 18.2557 111.478 18.2911C111.428 18.3308 111.376 18.3681 111.326 18.4087C111.143 18.5563 110.961 18.7098 110.781 18.8695C110.772 18.8775 110.764 18.8868 110.755 18.8948C110.704 18.9395 110.656 18.989 110.606 19.0347C110.445 19.1826 110.284 19.3303 110.125 19.4885C110.066 19.5479 110.007 19.6081 109.948 19.669C109.649 19.978 109.382 20.2793 109.129 20.5772C109.098 20.6134 109.059 20.6514 109.029 20.6875C108.983 20.7424 108.945 20.7956 108.901 20.8504C108.799 20.9763 108.7 21.1011 108.606 21.2252C108.527 21.3278 108.451 21.43 108.378 21.5313C108.29 21.6544 108.206 21.7761 108.125 21.8972C108.058 21.9963 107.993 22.0953 107.931 22.1931C107.904 22.2363 107.872 22.2806 107.846 22.3235C107.772 22.4439 107.706 22.5626 107.639 22.6813C107.626 22.7056 107.61 22.7303 107.597 22.7546C107.592 22.7633 107.587 22.7721 107.582 22.7806C107.582 22.7812 107.583 22.7818 107.583 22.7824C107.583 22.7818 107.582 22.7812 107.582 22.7806C107.551 22.8368 107.529 22.8908 107.5 22.9465C107.424 23.093 107.345 23.2401 107.279 23.384C107.272 23.4007 107.268 23.4163 107.26 23.4327C107.133 23.7147 107.026 23.9912 106.936 24.2628C106.931 24.2783 106.922 24.2944 106.917 24.3099C106.889 24.3964 106.872 24.4798 106.848 24.5653C106.812 24.691 106.774 24.8171 106.745 24.9406C106.74 24.9619 106.732 24.9839 106.727 25.0051C106.706 25.1026 106.694 25.1972 106.677 25.2934C106.659 25.3884 106.639 25.4843 106.626 25.578C106.623 25.5958 106.619 25.6143 106.616 25.632C106.6 25.7538 106.593 25.8726 106.584 25.9925C106.579 26.0563 106.57 26.1213 106.566 26.1847C106.566 26.1929 106.564 26.2018 106.564 26.21C106.557 26.3549 106.558 26.4967 106.56 26.6387C106.56 26.6875 106.557 26.7373 106.558 26.7856C106.558 26.7884 106.558 26.7912 106.558 26.7941C106.562 26.9074 106.573 27.0179 106.582 27.1295C106.588 27.2144 106.591 27.3008 106.6 27.3846C106.6 27.3865 106.6 27.3882 106.6 27.3899C106.602 27.4085 106.606 27.4262 106.608 27.4446C106.631 27.6403 106.66 27.8333 106.696 28.0237C106.699 28.0385 106.7 28.0541 106.703 28.0689C106.71 28.1088 106.722 28.1468 106.731 28.1864C106.77 28.3788 106.815 28.5686 106.865 28.7562C106.874 28.7897 106.88 28.8246 106.889 28.8578C106.895 28.8816 106.905 28.9036 106.912 28.9274C107.005 29.255 107.111 29.5755 107.225 29.8899C107.232 29.9089 107.237 29.9293 107.244 29.9483C107.252 29.9705 107.262 29.991 107.27 30.0131C107.434 30.4554 107.61 30.8861 107.784 31.3067C107.941 31.6873 108.09 32.0576 108.228 32.4245C108.263 32.5171 108.297 32.6098 108.33 32.7018C108.388 32.8644 108.438 33.0251 108.487 33.1858C108.521 33.2972 108.557 33.4089 108.586 33.5193C108.603 33.5849 108.617 33.6501 108.632 33.7153C108.674 33.895 108.71 34.0741 108.734 34.2522C108.737 34.2755 108.742 34.2989 108.745 34.3222C108.771 34.5371 108.781 34.7511 108.776 34.9647C108.775 34.9809 108.776 34.9971 108.775 35.0131C108.767 35.2376 108.74 35.4616 108.69 35.6855C108.689 35.6876 108.689 35.6898 108.688 35.6917C108.645 35.8827 108.575 36.0738 108.497 36.2652C108.474 36.3216 108.453 36.3779 108.427 36.4343C108.382 36.5305 108.316 36.6273 108.262 36.7237C108.17 36.8843 108.072 37.0449 107.951 37.2064C107.811 37.3937 107.666 37.5813 107.482 37.7706C107.26 38.0001 107.031 38.2012 106.797 38.3779C106.792 38.3822 106.786 38.3869 106.78 38.3913C106.547 38.5661 106.31 38.7157 106.07 38.8413C106.066 38.8432 106.062 38.8451 106.058 38.8471C105.908 38.9253 105.756 38.9783 105.604 39.0385L101.656 32.6895L99.4014 31.2968L93.0825 37.0373C93.0839 37.0414 93.0861 37.0474 93.0891 37.0557C93.0924 37.0649 93.1016 37.0875 93.1069 37.1019ZM98.9309 43.9911L98.8392 43.8437L101.878 41.0833L103.572 43.8082C103.544 43.8073 103.515 43.8078 103.487 43.8067C103.106 43.79 102.728 43.7575 102.356 43.7066C102.28 43.6963 102.207 43.681 102.132 43.6693C101.825 43.6215 101.521 43.562 101.221 43.4911C101.121 43.4674 101.02 43.444 100.921 43.4177C100.559 43.3224 100.2 43.2164 99.8522 43.0881L98.9309 43.9911ZM125.623 23.459C125.685 23.4696 125.748 23.4767 125.809 23.4882C126.205 23.5631 126.595 23.6623 126.981 23.7792C127.067 23.8053 127.152 23.8336 127.237 23.8618C127.242 23.8633 127.246 23.8655 127.251 23.867L125.602 25.3844L124.312 23.3106C124.384 23.3144 124.456 23.3224 124.528 23.3274C124.896 23.3537 125.261 23.397 125.623 23.459ZM112.918 39.8649C112.911 39.8537 112.904 39.8424 112.897 39.8312C112.904 39.8416 112.912 39.8548 112.918 39.8649C112.807 39.581 112.688 39.2925 112.567 39.0002C112.393 38.5793 112.216 38.1474 112.052 37.7046C112.037 37.6638 112.022 37.6224 112.007 37.5812C111.893 37.2675 111.787 36.9473 111.694 36.62C111.678 36.5624 111.662 36.5041 111.647 36.446C111.597 36.2591 111.552 36.07 111.513 35.8784C111.502 35.8238 111.488 35.77 111.478 35.7151C111.442 35.5247 111.413 35.3316 111.391 35.1361C111.388 35.116 111.384 35.0964 111.382 35.0761C111.373 34.9923 111.371 34.9059 111.364 34.821C111.356 34.7067 111.344 34.5934 111.341 34.4772C111.339 34.4288 111.343 34.379 111.342 34.3302C111.341 34.1799 111.34 34.0294 111.349 33.8762C111.352 33.8128 111.361 33.7478 111.366 33.684C111.377 33.5467 111.389 33.4094 111.408 33.2695C111.421 33.176 111.442 33.0799 111.459 32.9849C111.48 32.8678 111.5 32.751 111.527 32.6321C111.556 32.5088 111.594 32.3828 111.63 32.2575C111.659 32.1565 111.684 32.0564 111.718 31.9542C111.808 31.6827 111.915 31.406 112.043 31.1242C112.115 30.9642 112.197 30.8015 112.282 30.638C112.316 30.5738 112.344 30.5109 112.379 30.4461C112.393 30.4219 112.408 30.3971 112.422 30.3727C112.512 30.212 112.61 30.0488 112.713 29.8846C112.775 29.7866 112.841 29.6875 112.907 29.5884C112.988 29.4676 113.072 29.3462 113.16 29.2235C113.233 29.1217 113.31 29.0187 113.389 28.9156C113.483 28.7921 113.581 28.6678 113.683 28.5426C113.756 28.4518 113.833 28.3605 113.911 28.2687C114.164 27.9708 114.431 27.6694 114.73 27.3605C114.946 27.1376 115.167 26.9299 115.389 26.7262C115.438 26.6805 115.487 26.631 115.537 26.5863C115.552 26.5727 115.568 26.5614 115.583 26.5481C115.74 26.9488 115.918 27.3595 116.099 27.7798C116.314 28.2764 116.532 28.7896 116.73 29.3194C116.741 29.3497 116.752 29.3796 116.764 29.41C116.872 29.706 116.97 30.0088 117.058 30.3169C117.074 30.3698 117.09 30.4227 117.104 30.4761C117.165 30.703 117.221 30.9325 117.267 31.1663C117.269 31.1775 117.27 31.1889 117.272 31.1998C117.308 31.3942 117.338 31.5913 117.361 31.7909C117.372 31.8837 117.377 31.9785 117.385 32.0724C117.393 32.1761 117.403 32.2793 117.406 32.3843C117.411 32.5047 117.409 32.6269 117.407 32.7492C117.406 32.8244 117.408 32.8986 117.405 32.9744C117.397 33.1539 117.381 33.3355 117.358 33.519C117.356 33.5381 117.355 33.5563 117.353 33.5754C117.326 33.7817 117.288 33.9907 117.241 34.2026C117.191 34.4261 117.13 34.6526 117.055 34.8824C117.052 34.8915 117.048 34.9008 117.045 34.9099C116.959 35.1704 116.851 35.436 116.731 35.7051C116.675 35.8301 116.614 35.9565 116.55 36.0836C116.51 36.1632 116.472 36.2424 116.428 36.3227C116.338 36.4891 116.238 36.6578 116.133 36.8276C116.098 36.8844 116.068 36.9401 116.031 36.9975C115.886 37.2243 115.727 37.454 115.554 37.6866C115.511 37.7447 115.461 37.8041 115.416 37.8625C115.285 38.0327 115.149 38.2042 115.002 38.3778C114.76 38.6659 114.5 38.9574 114.213 39.2548C114.004 39.4701 113.79 39.67 113.576 39.8692C113.498 39.9416 113.422 40.0183 113.344 40.0887C113.258 40.1649 113.17 40.2329 113.084 40.3068C113.081 40.2973 113.078 40.2882 113.075 40.2787C113.056 40.2255 113.03 40.1693 113.01 40.1157C112.979 40.032 112.951 39.9495 112.918 39.8649Z" fill="#855F13"/>
<path d="M151.98 26.6176C151.994 26.347 151.986 26.0829 151.99 25.8154C151.992 25.6111 152 25.4053 151.997 25.2029C151.996 25.1275 152.002 25.0496 152 24.9743C151.985 24.4585 151.951 23.9493 151.897 23.4472C151.897 23.4447 151.896 23.4424 151.896 23.4399C151.895 23.4253 151.892 23.4116 151.89 23.397C151.838 22.929 151.772 22.4668 151.686 22.0121C151.669 21.9213 151.642 21.8343 151.624 21.7442C151.591 21.5842 151.552 21.4274 151.515 21.2694C151.467 21.066 151.428 20.8587 151.374 20.6583C151.317 20.4524 151.244 20.2536 151.181 20.051C151.134 19.9051 151.092 19.758 151.042 19.6139C151.014 19.5337 150.993 19.4503 150.964 19.3706C150.81 18.9487 150.64 18.5348 150.452 18.1292C150.446 18.1154 150.438 18.1025 150.431 18.0887C150.406 18.0336 150.374 17.9815 150.348 17.9267C150.186 17.5911 150.02 17.2576 149.835 16.9342C149.742 16.77 149.645 16.6075 149.544 16.4467L144.762 8.7552C145.059 9.23295 145.322 9.72916 145.565 10.2352C145.592 10.2901 145.623 10.3421 145.649 10.3972C145.88 10.8924 146.079 11.4029 146.259 11.9224C146.309 12.0665 146.352 12.2136 146.398 12.3595C146.524 12.7592 146.635 13.1654 146.732 13.5778C146.769 13.7358 146.809 13.8929 146.842 14.0527C146.953 14.5946 147.046 15.1436 147.108 15.7047C147.109 15.7195 147.112 15.7338 147.114 15.7487C147.176 16.3262 147.205 16.916 147.215 17.5114C147.218 17.7138 147.21 17.9196 147.207 18.1239C147.202 18.5275 147.188 18.9338 147.159 19.3445C147.14 19.6153 147.113 19.8883 147.084 20.1619C147.046 20.5225 146.998 20.8856 146.942 21.2506C146.897 21.5401 146.843 21.8316 146.788 22.1236C146.754 22.0183 146.721 21.9129 146.685 21.8086C146.66 21.7384 146.642 21.6656 146.617 21.5961C146.483 21.2276 146.334 20.8661 146.17 20.5122C146.164 20.5004 146.158 20.4892 146.152 20.4774C146.129 20.428 146.101 20.3815 146.077 20.3325C145.937 20.0404 145.792 19.7502 145.631 19.4687C145.549 19.3254 145.465 19.1834 145.378 19.043L145.378 19.0433L140.595 11.3518C140.595 11.3517 140.595 11.3517 140.595 11.3517L140.595 11.3515C140.593 11.3488 140.591 11.3465 140.59 11.3437C140.247 10.7929 139.863 10.2641 139.438 9.76058C138.156 8.24201 136.5 6.94787 134.467 5.93986C133.963 5.68998 133.441 5.46703 132.908 5.26034C132.737 5.19399 132.56 5.13751 132.387 5.07535C132.016 4.94335 131.643 4.81737 131.26 4.705C131.054 4.64421 130.844 4.58881 130.634 4.53383C130.266 4.43736 129.893 4.34962 129.515 4.27049C129.3 4.2257 129.086 4.18095 128.869 4.14153C128.462 4.06797 128.048 4.00775 127.632 3.95354C127.441 3.92864 127.253 3.89852 127.06 3.87759C126.45 3.81172 125.832 3.76131 125.205 3.73523C125.182 3.73433 125.16 3.73516 125.137 3.73426C124.53 3.71048 123.914 3.7077 123.292 3.72022C123.085 3.72441 122.874 3.73743 122.665 3.74561C122.36 3.75751 122.057 3.76219 121.75 3.78261C121.656 3.78876 121.559 3.80644 121.464 3.81362C120.607 3.87738 119.744 3.96272 118.869 4.09082C118.847 4.09405 118.824 4.09886 118.802 4.10227C118.789 4.10405 118.778 4.10445 118.765 4.10625C118.694 4.11691 118.621 4.13438 118.549 4.14526C117.907 4.24471 117.262 4.36267 116.614 4.49564C116.521 4.51481 116.429 4.52628 116.335 4.54601C116.181 4.57866 116.026 4.62226 115.872 4.6568C115.458 4.74946 115.043 4.8483 114.628 4.95435C114.484 4.99114 114.341 5.01909 114.197 5.05731C114.067 5.0919 113.937 5.13474 113.807 5.17048C113.458 5.26654 113.109 5.36887 112.76 5.47435C112.584 5.5272 112.409 5.5718 112.233 5.6271C112.115 5.66411 111.998 5.70799 111.88 5.74605C111.572 5.84572 111.264 5.95106 110.955 6.05757C110.766 6.12319 110.576 6.18126 110.386 6.24961C110.264 6.29341 110.142 6.34407 110.019 6.38932C109.743 6.4913 109.467 6.5977 109.191 6.70523C109.007 6.77667 108.823 6.84152 108.639 6.91552C108.495 6.97355 108.352 7.03897 108.208 7.09859C107.95 7.2054 107.693 7.31493 107.435 7.42646C107.275 7.4958 107.114 7.55929 106.954 7.63049C106.778 7.70914 106.604 7.79581 106.428 7.87676C106.181 7.99026 105.934 8.10454 105.688 8.22236C105.561 8.28319 105.433 8.33875 105.306 8.40075C105.089 8.50647 104.876 8.62146 104.66 8.73061C104.427 8.8485 104.194 8.96496 103.963 9.08656C103.872 9.13424 103.78 9.17767 103.69 9.22562C103.424 9.36742 103.161 9.51947 102.897 9.66611C102.683 9.78498 102.468 9.90055 102.255 10.0227C102.198 10.0549 102.141 10.0843 102.085 10.1168C101.761 10.3041 101.442 10.5028 101.121 10.6976C100.934 10.8112 100.745 10.92 100.559 11.0361C100.532 11.0528 100.504 11.068 100.478 11.0849C100.047 11.3549 99.6214 11.6368 99.1969 11.9202C99.0925 11.99 98.9862 12.0552 98.8821 12.1257C98.8754 12.1302 98.8687 12.1343 98.8622 12.1388C98.3574 12.4815 97.8595 12.8365 97.3652 13.1978C97.311 13.2375 97.255 13.2743 97.2009 13.3141L97.2006 13.3144C97.1967 13.3173 97.1931 13.3204 97.1892 13.3232C96.6182 13.7445 96.0553 14.1786 95.5004 14.6243C95.4844 14.6371 95.4678 14.6489 95.4519 14.6618C95.3492 14.7443 95.2515 14.834 95.1493 14.9176C94.676 15.3046 94.2075 15.6982 93.7476 16.1032C93.6916 16.1522 93.6327 16.1978 93.577 16.2471C93.4691 16.3431 93.3686 16.4476 93.2615 16.5444C92.7572 17.0003 92.262 17.4665 91.7763 17.9434C91.6731 18.0448 91.5633 18.1384 91.4609 18.2407C91.2747 18.4268 91.0899 18.6144 90.9067 18.8037C90.4816 19.2429 90.0735 19.685 89.6758 20.1287C89.5469 20.2725 89.4249 20.4171 89.2989 20.5612C89.1124 20.775 88.9204 20.9879 88.7401 21.2025C88.6886 21.2639 88.6449 21.3262 88.5939 21.3877C88.0946 21.9887 87.6145 22.592 87.1649 23.198C87.1094 23.2727 87.06 23.3478 87.0051 23.4229C86.6104 23.9627 86.2381 24.5037 85.8828 25.0456C85.769 25.2192 85.658 25.3926 85.5482 25.5663C85.2228 26.0815 84.9142 26.5967 84.6246 27.1118C84.5657 27.2167 84.5008 27.3216 84.4432 27.4265C84.1095 28.035 83.8043 28.6426 83.5206 29.249C83.4959 29.3015 83.4646 29.3545 83.4405 29.407C83.372 29.5555 83.3168 29.7028 83.2512 29.8511C83.1174 30.154 82.9862 30.4565 82.8649 30.7582C82.7772 30.976 82.6963 31.1929 82.6152 31.4101C82.5057 31.7038 82.4005 31.9965 82.303 32.2887C82.2677 32.3945 82.2237 32.5016 82.1898 32.6072C82.164 32.6877 82.15 32.7662 82.1252 32.8465C81.9244 33.4958 81.7431 34.142 81.6024 34.7805C81.6018 34.7834 81.6006 34.7862 81.6 34.7892C81.5953 34.8107 81.5934 34.8314 81.5888 34.8527C81.4735 35.384 81.3836 35.9097 81.3099 36.4314C81.3013 36.4916 81.2856 36.5533 81.2778 36.6134C81.2614 36.7369 81.2581 36.8568 81.244 36.9795C81.2079 37.2962 81.1776 37.6111 81.1571 37.9235C81.1509 38.0184 81.1355 38.1159 81.1307 38.2105C81.1253 38.3171 81.1306 38.4204 81.127 38.5262C81.1182 38.7858 81.1154 39.0433 81.1177 39.2995C81.1188 39.4143 81.1106 39.5319 81.1137 39.6457C81.1164 39.7386 81.1281 39.8283 81.1322 39.9208C81.1422 40.1515 81.1588 40.3798 81.1782 40.6076C81.1886 40.7307 81.1899 40.857 81.2031 40.9792C81.2124 41.0671 81.2306 41.1518 81.2413 41.2392C81.2519 41.3258 81.2555 41.4151 81.2676 41.5013C81.2812 41.5989 81.3069 41.692 81.3223 41.7891C81.3458 41.9363 81.3602 42.0869 81.3877 42.2325C81.4181 42.3933 81.4619 42.5486 81.4972 42.7074C81.5313 42.8611 81.5643 43.0151 81.6031 43.1671C81.6241 43.2486 81.638 43.3332 81.6601 43.4145C81.7338 43.6833 81.8241 43.9445 81.9122 44.2067C81.9421 44.2953 81.9659 44.3867 81.9974 44.4746C82.0051 44.4958 82.0101 44.5179 82.0178 44.539C82.152 44.9073 82.301 45.2687 82.4648 45.6228C82.4798 45.6554 82.4988 45.6859 82.5143 45.7183C82.5647 45.8253 82.6234 45.9277 82.6768 46.0333C82.7836 46.2452 82.8852 46.4598 83.0033 46.6661C83.0853 46.8094 83.17 46.9512 83.2573 47.0916L83.2576 47.0922C83.2574 47.0921 83.2573 47.0919 83.2573 47.0918L88.0395 54.7833C88.6349 55.7407 89.3787 56.6151 90.2228 57.4253C90.0343 57.3736 89.8431 57.3265 89.6569 57.2708C89.4725 57.2154 89.2894 57.1583 89.1076 57.0992C88.746 56.9812 88.3901 56.854 88.0384 56.7203C87.8805 56.66 87.7207 56.6033 87.5649 56.5399C87.0678 56.3379 86.5785 56.124 86.1038 55.8887C82.9986 54.3493 80.6611 52.2268 79.0837 49.69L83.8661 57.3815C85.4434 59.9183 87.7808 62.0408 90.886 63.5802C91.3608 63.8155 91.8501 64.0294 92.3471 64.2314C92.5028 64.2947 92.6626 64.3514 92.8203 64.4114C93.1727 64.5455 93.5289 64.673 93.8913 64.791C94.0722 64.8499 94.2544 64.9069 94.4377 64.9618C94.8043 65.0715 95.1763 65.1722 95.552 65.2661C95.7206 65.3082 95.8872 65.3535 96.0574 65.3924C96.5898 65.5145 97.1287 65.6249 97.6776 65.7162C97.6884 65.7181 97.6986 65.7205 97.7094 65.7224C98.2699 65.815 98.8406 65.8878 99.4165 65.9493C99.5965 65.9685 99.7793 65.9815 99.9606 65.9976C100.366 66.0337 100.774 66.0637 101.187 66.0849C101.394 66.0953 101.603 66.104 101.812 66.1107C102.226 66.1241 102.642 66.1291 103.061 66.1278C103.252 66.1273 103.441 66.1295 103.633 66.126C104.212 66.1152 104.795 66.0932 105.383 66.0553C105.408 66.0536 105.432 66.0539 105.456 66.0522C105.46 66.052 105.463 66.0516 105.467 66.0514C106.018 66.0146 106.574 65.9657 107.132 65.9055C107.297 65.8878 107.465 65.862 107.631 65.8422C108.025 65.795 108.419 65.7479 108.816 65.6892C108.836 65.6863 108.856 65.6846 108.875 65.6816C108.921 65.6747 108.969 65.6635 109.015 65.6565C109.801 65.5366 110.593 65.3908 111.388 65.2267C111.479 65.2081 111.567 65.1971 111.658 65.178C111.714 65.1661 111.771 65.1497 111.827 65.1377C112.542 64.9832 113.26 64.8121 113.98 64.6226C114.022 64.6115 114.064 64.6036 114.107 64.5922C114.23 64.5595 114.353 64.5189 114.476 64.4852C114.992 64.3438 115.509 64.1946 116.026 64.0358C116.136 64.0021 116.246 63.9746 116.356 63.94C116.465 63.9057 116.575 63.8645 116.684 63.8294C117.137 63.6836 117.591 63.53 118.044 63.3712C118.186 63.3213 118.329 63.2784 118.471 63.2272C118.529 63.2063 118.587 63.1818 118.646 63.1607C119.16 62.9738 119.673 62.7767 120.186 62.5733C120.281 62.5356 120.376 62.5028 120.471 62.4645C120.484 62.4595 120.496 62.4535 120.509 62.4484C121.115 62.2038 121.719 61.9467 122.321 61.679C122.348 61.6674 122.374 61.6573 122.401 61.6457C122.554 61.5773 122.706 61.5012 122.859 61.4314C123.277 61.2407 123.695 61.0484 124.11 60.8468C124.169 60.8182 124.229 60.7926 124.288 60.7638C124.459 60.6801 124.628 60.5883 124.799 60.503C125.157 60.3233 125.516 60.1425 125.872 59.9549C125.961 59.9083 126.05 59.8661 126.139 59.8189C126.291 59.7376 126.442 59.6489 126.594 59.566C126.941 59.3776 127.286 59.1866 127.63 58.9907C127.745 58.9254 127.862 58.8648 127.976 58.7985C128.101 58.7264 128.223 58.648 128.348 58.5748C128.7 58.3676 129.051 58.1561 129.4 57.941C129.539 57.8558 129.68 57.7762 129.817 57.6899C129.908 57.6331 129.997 57.5713 130.088 57.5137C130.466 57.2738 130.841 57.0273 131.215 56.7783C131.365 56.6784 131.518 56.5843 131.668 56.483C131.719 56.448 131.769 56.4101 131.82 56.3749C132.409 55.9727 132.993 55.5621 133.57 55.1372C133.57 55.1369 133.57 55.1368 133.571 55.1365C133.573 55.1347 133.575 55.1327 133.578 55.1311C134.184 54.6837 134.781 54.2202 135.372 53.7486C135.438 53.6957 135.507 53.6467 135.574 53.5933C135.671 53.5152 135.763 53.4302 135.86 53.3514C136.396 52.9141 136.924 52.4673 137.445 52.0105C137.536 51.931 137.631 51.8572 137.721 51.7773C137.754 51.7476 137.785 51.715 137.819 51.6853C138.541 51.0408 139.244 50.3746 139.934 49.6927C140.003 49.6248 140.076 49.5624 140.145 49.494C140.358 49.2807 140.57 49.0658 140.78 48.8489C141.389 48.2199 141.964 47.5849 142.524 46.9477C142.653 46.8011 142.781 46.6549 142.907 46.5081C143.024 46.3715 143.148 46.2362 143.263 46.0997C143.453 45.8727 143.619 45.6429 143.803 45.4152C144.149 44.9883 144.492 44.5615 144.816 44.1324C145.067 43.8002 145.304 43.4676 145.542 43.1345C145.845 42.7098 146.142 42.2856 146.424 41.86C146.647 41.5223 146.861 41.1852 147.071 40.8472C147.334 40.4241 147.587 40.0013 147.83 39.5779C148.023 39.2397 148.211 38.9022 148.391 38.5643C148.617 38.1401 148.829 37.717 149.034 37.2938C149.13 37.0959 149.244 36.8972 149.335 36.6998C149.412 36.5329 149.474 36.3673 149.548 36.2007C149.662 35.9409 149.772 35.6822 149.879 35.4232C150.055 34.9945 150.219 34.5677 150.374 34.1414C150.465 33.8913 150.557 33.6413 150.64 33.3923C150.68 33.2733 150.729 33.153 150.767 33.0342C150.829 32.84 150.866 32.6502 150.923 32.4567C151.072 31.9568 151.209 31.4597 151.327 30.9655C151.36 30.823 151.411 30.6775 151.443 30.5357C151.483 30.3522 151.503 30.1731 151.539 29.9904C151.609 29.639 151.671 29.2899 151.724 28.9422C151.749 28.7779 151.79 28.61 151.812 28.4467C151.838 28.2467 151.845 28.0519 151.866 27.8533C151.895 27.5795 151.923 27.3069 151.942 27.036C151.951 26.8973 151.973 26.7554 151.98 26.6176ZM86.3015 50.4943C86.2942 50.4627 86.2866 50.4309 86.2796 50.3992C86.2123 50.0966 86.1541 49.7904 86.1047 49.4805C86.0756 49.298 86.0464 49.1154 86.0236 48.9307C85.9978 48.7219 85.9784 48.5108 85.9604 48.2991C85.9413 48.0715 85.9244 47.843 85.9144 47.6122C85.9053 47.4066 85.9018 47.199 85.9 46.991C85.8978 46.7348 85.9005 46.4773 85.9093 46.2177C85.916 46.0175 85.9261 45.8167 85.9395 45.6147C85.96 45.3032 85.9901 44.9889 86.0261 44.673C86.0469 44.4897 86.0662 44.3067 86.0924 44.1218C86.1661 43.6002 86.2559 43.0745 86.3712 42.5434C86.3764 42.5195 86.3794 42.496 86.3846 42.472C86.5254 41.8338 86.7068 41.1872 86.9075 40.538C86.9648 40.3524 87.0228 40.1668 87.0851 39.9806C87.1829 39.6881 87.2881 39.3946 87.3979 39.1006C87.4785 38.8841 87.5597 38.6675 87.647 38.4503C87.7684 38.148 87.8999 37.8449 88.0339 37.5417C88.1225 37.3413 88.2087 37.1413 88.3028 36.9406C88.5865 36.3343 88.8919 35.7265 89.2255 35.1179C89.2831 35.0131 89.3479 34.9082 89.407 34.8033C89.6966 34.2882 90.0053 33.7727 90.3307 33.2575C90.4402 33.0841 90.5511 32.911 90.6647 32.7376C91.0201 32.1955 91.3929 31.6539 91.7879 31.1138C91.8425 31.0391 91.8917 30.9641 91.9471 30.8895C92.3967 30.2835 92.8769 29.6802 93.3761 29.0792C93.6057 28.8029 93.8413 28.5275 94.0812 28.2527C94.2071 28.1086 94.3293 27.964 94.458 27.8202C94.8557 27.3765 95.2639 26.9343 95.689 26.4951C95.9728 26.2022 96.2677 25.9205 96.5587 25.6349C97.0443 25.1581 97.5395 24.6916 98.0437 24.2359C98.2062 24.0892 98.3656 23.939 98.5298 23.7946C98.9897 23.3897 99.4584 22.9961 99.9317 22.6091C100.05 22.5125 100.164 22.4112 100.283 22.3158C100.838 21.8701 101.401 21.4356 101.972 21.0147C101.976 21.0118 101.979 21.0086 101.983 21.0056C102.037 20.9658 102.093 20.929 102.148 20.8893C102.648 20.5234 103.153 20.164 103.664 19.8172C103.767 19.7479 103.872 19.6836 103.975 19.6149C104.427 19.3124 104.882 19.0138 105.342 18.7267C105.526 18.6122 105.712 18.5048 105.897 18.3927C106.276 18.1628 106.654 17.9335 107.037 17.7142C107.25 17.5922 107.465 17.4765 107.679 17.3576C108.033 17.161 108.388 16.9655 108.745 16.778C108.977 16.6566 109.21 16.5398 109.442 16.4221C109.784 16.2491 110.126 16.0785 110.47 15.9139C110.716 15.796 110.963 15.6818 111.21 15.5683C111.545 15.4141 111.881 15.2639 112.218 15.118C112.475 15.0064 112.732 14.8968 112.99 14.7901C113.318 14.6545 113.646 14.524 113.974 14.3962C114.249 14.2892 114.524 14.1831 114.8 14.0815C115.113 13.966 115.427 13.8565 115.74 13.7481C116.048 13.6419 116.355 13.5369 116.662 13.4377C116.955 13.3428 117.249 13.254 117.542 13.1655C117.892 13.0604 118.24 12.958 118.589 12.8621C118.863 12.7865 119.137 12.7155 119.411 12.6457C119.826 12.5398 120.24 12.441 120.654 12.3483C120.902 12.2928 121.149 12.2377 121.396 12.1871C122.044 12.0541 122.69 11.9362 123.331 11.8368C123.416 11.8238 123.501 11.8062 123.584 11.7937C124.481 11.661 125.368 11.5705 126.247 11.5051C126.649 11.4751 127.049 11.4527 127.447 11.4371C127.656 11.4289 127.867 11.4159 128.075 11.4117C128.696 11.3992 129.312 11.4019 129.92 11.4257C129.942 11.4266 129.965 11.4259 129.987 11.4267C130.615 11.4528 131.233 11.5032 131.843 11.5692C132.034 11.5897 132.221 11.6198 132.41 11.6444C132.828 11.6988 133.244 11.7593 133.652 11.8332C133.869 11.8725 134.083 11.9172 134.296 11.962C134.675 12.0411 135.048 12.129 135.417 12.2255C135.626 12.2804 135.836 12.3356 136.042 12.3962C136.425 12.5087 136.799 12.6351 137.17 12.7674C137.344 12.8293 137.52 12.8856 137.69 12.9519C138.223 13.1585 138.745 13.3814 139.249 13.6313C140.408 14.2059 141.419 14.8911 142.333 15.6404C142.359 15.7525 142.388 15.8635 142.411 15.9771C142.508 16.4494 142.589 16.9286 142.643 17.4179C142.644 17.4316 142.647 17.4444 142.649 17.4582C142.703 17.9624 142.728 18.4768 142.737 18.9966C142.74 19.1737 142.733 19.354 142.73 19.5328C142.726 19.885 142.713 20.2395 142.688 20.5978C142.672 20.8342 142.648 21.0726 142.623 21.3115C142.589 21.6263 142.547 21.9431 142.498 22.2618C142.452 22.5658 142.397 22.8714 142.337 23.1786C142.281 23.4604 142.219 23.7436 142.152 24.028C142.049 24.4601 141.929 24.8956 141.799 25.3327C141.718 25.6038 141.643 25.8739 141.552 26.1467C141.479 26.3654 141.398 26.5852 141.318 26.8049C141.184 27.175 141.042 27.5461 140.888 27.9184C140.794 28.1459 140.698 28.3737 140.597 28.6021C140.457 28.9184 140.304 29.2356 140.151 29.5528C139.971 29.923 139.785 30.2933 139.588 30.6643C139.431 30.9587 139.267 31.2531 139.099 31.5478C138.887 31.9183 138.665 32.2887 138.434 32.6591C138.252 32.9529 138.065 33.2467 137.871 33.5403C137.625 33.9123 137.365 34.2834 137.101 34.6544C136.893 34.9449 136.686 35.2353 136.467 35.5249C136.183 35.9004 135.883 36.2744 135.58 36.6482C135.324 36.9648 135.073 37.2821 134.802 37.5971C134.691 37.7269 134.577 37.8564 134.464 37.9859C133.975 38.5414 133.474 39.0949 132.943 39.6433C132.701 39.8929 132.452 40.1348 132.205 40.3791C131.603 40.9746 130.989 41.5564 130.358 42.1193C130.252 42.2138 130.144 42.3054 130.037 42.399C129.58 42.7994 129.117 43.1909 128.648 43.5737C128.507 43.6885 128.367 43.8044 128.226 43.9175C127.709 44.3295 127.188 44.7345 126.658 45.1254C126.656 45.1271 126.654 45.1288 126.651 45.1305C126.147 45.5019 125.636 45.861 125.121 46.2129C124.949 46.331 124.773 46.4447 124.6 46.5604C124.272 46.7784 123.944 46.9944 123.613 47.2043C123.413 47.3311 123.212 47.4551 123.01 47.5788C122.705 47.7667 122.399 47.9517 122.09 48.1328C121.884 48.2543 121.677 48.3747 121.469 48.4931C121.166 48.6651 120.863 48.8329 120.559 48.9984C120.351 49.1115 120.143 49.2249 119.934 49.3349C119.619 49.5007 119.302 49.6607 118.985 49.8194C118.789 49.9176 118.593 50.0179 118.396 50.1134C118.03 50.2911 117.661 50.4609 117.293 50.629C117.139 50.6989 116.986 50.7725 116.833 50.8408C116.305 51.0751 115.776 51.3 115.246 51.5143C115.161 51.5484 115.076 51.5788 114.992 51.6125C114.535 51.7941 114.078 51.9692 113.62 52.1355C113.447 52.1986 113.274 52.2566 113.101 52.3173C112.703 52.4567 112.306 52.5914 111.908 52.7191C111.717 52.7806 111.526 52.8402 111.335 52.899C110.884 53.0375 110.433 53.1677 109.983 53.291C109.838 53.3308 109.692 53.3734 109.547 53.4115C108.919 53.577 108.292 53.7263 107.667 53.8613C107.54 53.8888 107.413 53.9126 107.286 53.9388C106.592 54.0818 105.9 54.2092 105.214 54.3138C105.162 54.3217 105.109 54.332 105.058 54.3398C104.065 54.4868 103.081 54.5946 102.111 54.6593C102.09 54.6607 102.07 54.6607 102.049 54.6621C101.533 54.6955 101.021 54.7146 100.513 54.7241C100.346 54.7271 100.181 54.7252 100.014 54.7258C99.6476 54.7268 99.2828 54.7225 98.9212 54.7108C98.7399 54.7049 98.5593 54.6975 98.3794 54.6884C98.0176 54.67 97.6591 54.6435 97.3032 54.6117C97.1463 54.5977 96.9884 54.5866 96.8326 54.5699C96.3299 54.5163 95.8316 54.4528 95.3424 54.3721C95.3293 54.3699 95.3165 54.3667 95.3035 54.3645C94.8279 54.285 94.3604 54.1897 93.8988 54.084C93.75 54.0499 93.6045 54.0104 93.4574 53.9734C93.1294 53.8913 92.8047 53.8037 92.4846 53.7079C92.3244 53.6598 92.1651 53.61 92.0066 53.5585C91.6905 53.4557 91.3794 53.3441 91.0719 53.2273C90.9344 53.1748 90.7953 53.1255 90.6597 53.0704C90.2255 52.894 89.7981 52.7071 89.3834 52.5014C88.2253 51.9274 87.2154 51.2428 86.3015 50.4943Z" fill="#5EB5F7"/>
<path d="M147.958 22.2047C147.95 22.2509 147.943 22.2964 147.934 22.3428L145.677 22.4795L145.521 21.9948C145.398 21.6566 145.261 21.3261 145.086 20.9541L145.026 20.8392C144.897 20.5716 144.764 20.304 144.622 20.0521C144.548 19.9233 144.471 19.7933 144.388 19.661L143.901 18.8784C143.902 18.9115 143.903 18.9434 143.902 18.9765C143.905 19.1042 143.897 19.55 143.897 19.55C143.892 19.9239 143.878 20.3012 143.852 20.676C143.835 20.9277 143.809 21.1794 143.783 21.4333C143.747 21.7669 143.704 22.1026 143.651 22.4394C143.602 22.7591 143.544 23.081 143.482 23.4039C143.423 23.6995 143.358 23.9962 143.286 24.3007C143.178 24.7518 143.053 25.2073 142.918 25.6637L142.864 25.8476C142.799 26.0702 142.734 26.2916 142.659 26.5151C142.598 26.699 142.532 26.8827 142.464 27.0676L142.415 27.2037C142.275 27.5893 142.127 27.976 141.965 28.3682C141.867 28.6028 141.768 28.8385 141.663 29.0765C141.517 29.4039 141.36 29.7334 141.201 30.0606C141.016 30.4445 140.822 30.8293 140.616 31.214C140.453 31.5195 140.284 31.826 140.111 32.1268C139.892 32.5101 139.663 32.8933 139.425 33.2764C139.236 33.5793 139.043 33.882 138.844 34.1835C138.59 34.5675 138.322 34.9513 138.049 35.3338C137.836 35.6318 137.623 35.9297 137.398 36.2285C137.107 36.6142 136.798 36.9997 136.483 37.3873L136.265 37.6578C136.076 37.8911 135.887 38.1243 135.687 38.3585L135.339 38.7583C134.838 39.3267 134.324 39.8939 133.781 40.4561C133.567 40.6764 133.347 40.8922 133.129 41.1079L133.025 41.2101C132.409 41.8191 131.78 42.4142 131.131 42.9931L130.806 43.2768C130.339 43.6861 129.865 44.0863 129.309 44.5399L128.953 44.83C128.444 45.2353 127.933 45.6337 127.411 46.0195L127.328 46.1004L127.254 46.1358C126.767 46.4935 126.276 46.8375 125.781 47.1757L125.246 47.5328C124.911 47.7559 124.574 47.9767 124.237 48.1907L123.621 48.5727C123.308 48.7654 122.997 48.9536 122.68 49.1405L122.047 49.5063C121.739 49.6831 121.426 49.8552 121.116 50.024L120.476 50.3692C120.154 50.5378 119.829 50.703 119.508 50.8624L118.903 51.1648C118.529 51.3464 118.152 51.521 117.773 51.6933L117.306 51.9088C116.765 52.1483 116.226 52.3775 115.681 52.5975L115.422 52.6975C114.955 52.8834 114.486 53.0634 114.022 53.2311L113.485 53.4205C113.078 53.5627 112.671 53.7004 112.271 53.8279L111.676 54.0165C111.214 54.1579 110.752 54.2914 110.293 54.4169L109.843 54.5414C109.198 54.7109 108.556 54.8634 107.904 55.0043L107.52 55.0831C106.806 55.2299 106.095 55.3608 105.388 55.4679L105.229 55.4952C104.198 55.6476 103.175 55.758 102.123 55.8281C101.591 55.8624 101.061 55.882 100.528 55.8924L99.3943 55.8894L98.883 55.8784L98.3183 55.8542C97.9427 55.8349 97.5706 55.8078 97.194 55.7749L96.7105 55.7313C96.185 55.6757 95.6643 55.6087 95.1097 55.5161C94.6131 55.4324 94.1236 55.3329 93.6354 55.2219L93.1781 55.1068C92.8319 55.0208 92.4869 54.9279 92.1501 54.826C91.9811 54.7756 91.8121 54.723 91.6466 54.6692C91.3122 54.5594 90.9813 54.4428 90.6607 54.3194L90.2212 54.1522C89.7603 53.9652 89.3064 53.7658 88.8654 53.5472C88.7579 53.4944 88.6493 53.4391 88.5431 53.3828L89.0294 54.1666C89.5402 54.986 90.2129 55.7987 91.0296 56.5816L89.9162 58.5516C89.9162 58.5516 89.4555 58.4297 89.3239 58.3901C89.2717 58.3743 89.2199 58.3574 89.1678 58.3414C90.3944 59.9944 91.6652 61.6138 92.9587 63.2148L93.2351 63.3203C93.5693 63.4473 93.9081 63.5686 94.255 63.682C94.4274 63.7381 94.5986 63.7908 94.7732 63.8436C95.1226 63.9491 95.4754 64.0432 95.8375 64.1329L96.3176 64.2551C96.8273 64.371 97.3441 64.4778 97.8998 64.5703C98.4384 64.6604 98.9876 64.7289 99.5358 64.7883L100.066 64.8349C100.457 64.8703 100.851 64.8977 101.243 64.9195L101.853 64.9433L102.407 64.9571C102.623 64.9603 103.611 64.9589 103.611 64.9589C104.173 64.9478 104.739 64.9265 105.391 64.8859C105.927 64.8505 106.465 64.8036 107.006 64.7455L107.605 64.6699C107.95 64.6282 108.297 64.5854 108.695 64.5286L108.839 64.5022C109.606 64.3858 110.378 64.2432 111.145 64.0857L111.58 63.9963C112.279 63.8458 112.979 63.6794 113.683 63.4936L113.809 63.4635L114.17 63.3582C114.674 63.2208 115.179 63.0743 115.683 62.9198L116.011 62.8254L116.327 62.7183C116.769 62.5754 117.213 62.4257 117.663 62.267L118.249 62.0636C118.75 61.8805 119.255 61.6872 119.76 61.486L120.074 61.3652C120.666 61.1265 121.258 60.8752 121.926 60.5794L122.374 60.3693C122.784 60.1815 123.195 59.9925 123.596 59.7989L123.78 59.7127L124.277 59.4588C124.628 59.2827 124.98 59.1066 125.329 58.9224L125.481 58.8448L126.035 58.5406C126.374 58.3563 126.714 58.1697 127.053 57.9762L127.393 57.7874L127.757 57.5681C128.102 57.3645 128.447 57.1575 128.788 56.947L129.2 56.6999L129.464 56.527C129.834 56.2919 130.203 56.0498 130.568 55.8066L131.013 55.5167L131.163 55.4094C131.72 55.0299 132.273 54.6424 132.817 54.2421L132.9 54.1613L132.973 54.127C133.537 53.7088 134.094 53.2768 134.65 52.83L134.839 52.6857L135.122 52.447C135.648 52.0179 136.166 51.5809 136.679 51.13L136.832 51.0011L137.043 50.8126C137.75 50.1822 138.439 49.5298 139.108 48.8692L139.32 48.6682C139.53 48.4591 139.736 48.2501 139.942 48.0364C140.538 47.4215 141.101 46.8003 141.649 46.1755L142.369 45.3513C142.466 45.2353 142.555 45.118 142.645 45.0019L142.897 44.6806C143.234 44.2637 143.57 43.8467 143.886 43.4294C144.13 43.1058 144.361 42.7807 144.594 42.4546C144.889 42.0416 145.178 41.6296 145.452 41.2151C145.669 40.8865 145.877 40.5589 146.08 40.2323C146.336 39.8199 146.582 39.4095 146.818 38.9968C147.006 38.6688 147.187 38.342 147.362 38.0127C147.581 37.6043 147.785 37.1945 147.985 36.7835L148.135 36.4892C148.185 36.3953 148.234 36.3025 148.275 36.2119C148.275 36.2119 148.698 35.2261 148.8 34.9801C148.97 34.5664 149.129 34.1548 149.277 33.7442L149.656 32.6778C149.684 32.5927 149.704 32.5086 149.725 32.4245C149.749 32.3268 149.775 32.228 149.805 32.1235C149.947 31.6456 150.079 31.1686 150.192 30.6936C150.212 30.6095 150.304 30.2835 150.304 30.2835C150.321 30.204 150.395 29.7615 150.395 29.7615C150.462 29.4284 150.521 29.0963 150.572 28.764C150.572 28.764 150.647 28.358 150.656 28.2977C150.667 28.2032 150.706 27.7306 150.706 27.7306C150.732 27.4884 150.755 27.2489 150.773 27.0069C149.881 25.3776 148.947 23.774 147.958 22.2047Z" fill="#5EB5F7"/>
<path d="M127.053 57.9759L127.393 57.787L127.757 57.5677C128.102 57.3641 128.447 57.1571 128.788 56.9466L129.2 56.6995L129.464 56.5267C129.834 56.2915 130.203 56.0494 130.568 55.8062L131.013 55.5163L131.163 55.4091C131.72 55.0295 132.273 54.642 132.817 54.2418L132.9 54.1609L132.973 54.1266C133.537 53.7084 134.094 53.2764 134.65 52.8296L134.839 52.6853L135.122 52.4466C135.648 52.0176 136.166 51.5805 136.679 51.1296L136.832 51.0007L137.043 50.8123C137.75 50.1818 138.439 49.5294 139.108 48.8688L139.32 48.6678C139.53 48.4587 139.736 48.2497 139.941 48.0361C140.538 47.4211 141.101 46.7999 141.649 46.1751L142.369 45.351C142.466 45.235 142.555 45.1177 142.645 45.0015L142.897 44.6802C143.234 44.2633 143.57 43.8463 143.886 43.429C144.13 43.1054 144.361 42.7804 144.594 42.4542C144.889 42.0412 145.178 41.6292 145.452 41.2148C145.669 40.8861 145.877 40.5585 146.08 40.2319C146.336 39.8195 146.582 39.4092 146.818 38.9964C147.006 38.6685 147.187 38.3416 147.362 38.0123C147.581 37.6039 147.785 37.1941 147.985 36.7831L148.135 36.4889C148.185 36.3949 148.234 36.3021 148.275 36.2115C148.275 36.2115 148.49 35.7107 148.651 35.3336C146.675 32.4534 144.638 29.6171 142.553 26.8149C142.523 26.899 142.495 26.9827 142.464 27.0672L142.415 27.2034C142.275 27.589 142.127 27.9757 141.965 28.3679C141.867 28.6024 141.768 28.8382 141.663 29.0761C141.517 29.4035 141.36 29.733 141.201 30.0602C141.016 30.4441 140.822 30.8289 140.616 31.2136C140.453 31.5191 140.284 31.8256 140.111 32.1264C139.892 32.5098 139.663 32.893 139.425 33.276C139.236 33.5789 139.043 33.8817 138.844 34.1832C138.59 34.5672 138.322 34.9509 138.049 35.3334C137.836 35.6314 137.623 35.9293 137.398 36.2281C137.106 36.6139 136.798 36.9993 136.483 37.3869L136.265 37.6574C136.076 37.8907 135.887 38.1239 135.687 38.3582L135.339 38.7579C134.838 39.3264 134.324 39.8936 133.781 40.4557C133.567 40.6761 133.347 40.8918 133.129 41.1075L133.025 41.2097C132.409 41.8187 131.78 42.4138 131.131 42.9927L130.806 43.2764C130.339 43.6858 129.865 44.0859 129.309 44.5395L128.953 44.8296C128.444 45.235 127.933 45.6334 127.411 46.0191L127.328 46.1L127.254 46.1354C126.767 46.4931 126.276 46.8371 125.781 47.1753L125.246 47.5324C124.911 47.7555 124.574 47.9763 124.237 48.1903L123.621 48.5724C123.308 48.765 122.997 48.9532 122.68 49.1401L122.047 49.506C121.739 49.6827 121.426 49.8549 121.116 50.0236L120.476 50.3688C120.154 50.5374 119.829 50.7026 119.508 50.8621L118.903 51.1645C118.529 51.346 118.152 51.5206 117.773 51.6929L117.306 51.9084C116.765 52.1479 116.226 52.3771 115.681 52.5972L115.422 52.6971C114.955 52.883 114.486 53.0631 114.022 53.2307L113.485 53.4201C113.078 53.5623 112.671 53.7001 112.271 53.8276L111.676 54.0161C111.214 54.1575 110.752 54.291 110.293 54.4165L109.843 54.541C109.463 54.6409 109.081 54.7248 108.7 54.8141C111.006 57.5649 113.384 60.2529 115.834 62.8761L116.011 62.8251L116.327 62.718C116.769 62.5751 117.213 62.4254 117.663 62.2667L118.249 62.0632C118.75 61.8802 119.255 61.6869 119.76 61.4856L120.074 61.3648C120.666 61.1261 121.258 60.8748 121.926 60.579L122.373 60.3689C122.784 60.1811 123.195 59.9922 123.596 59.7985L123.78 59.7123L124.277 59.4585C124.628 59.2823 124.98 59.1062 125.329 58.922L125.481 58.8445L126.035 58.5402C126.374 58.3559 126.714 58.1693 127.053 57.9759Z" fill="#A6DDFF"/>
<path d="M101.886 43.02C102.466 43.1297 103.051 43.1962 103.638 43.2164C103.288 42.097 102.96 40.9723 102.657 39.8408C102.263 39.7445 101.892 39.609 101.557 39.4427C101.203 39.2674 100.868 39.0779 100.563 38.8808C100.22 38.659 99.9319 38.4369 99.6821 38.2192C100.5 39.7733 101.214 41.3859 101.886 43.02Z" fill="#FF9C08"/>
<path d="M97.659 34.8729C97.8633 35.1621 98.0495 35.4617 98.2413 35.758L98.3395 35.615C98.4958 35.388 99.254 34.2968 99.6392 33.947C99.8103 33.7483 100.13 33.4061 100.482 33.0361C100.431 32.8859 100.382 32.7353 100.331 32.5852L99.4711 32.0542L97.4686 33.8735C97.5333 34.2067 97.5931 34.5398 97.659 34.8729Z" fill="#FF9C08"/>
<path d="M134.466 5.93982C146.075 11.695 145.393 26.7847 132.943 39.6433C120.496 52.498 100.992 58.2567 89.3834 52.5015C77.7781 46.7482 78.4602 31.6584 90.9067 18.8038C103.357 5.94508 122.861 0.186478 134.466 5.93982Z" fill="#1F88E5"/>
<path d="M124.938 12.6019C124.409 9.64701 123.901 6.68654 123.428 3.71777C112.68 3.88899 99.9384 9.47546 90.9067 18.8035C90.741 18.9744 90.5861 19.1472 90.4247 19.319C91.6787 23.2418 92.9694 27.1527 94.2779 31.0578C94.2779 31.0578 101.255 51.1399 102.531 54.6227C112.139 53.8673 122.985 49.0472 131.259 41.2899C129.717 35.5686 124.938 12.6019 124.938 12.6019Z" fill="#207ABC"/>
<path d="M125.862 17.6499L125.69 17.8176C125.772 17.873 125.849 17.9374 125.93 17.9945C125.908 17.8795 125.884 17.7648 125.862 17.6499Z" fill="#C46812"/>
<path d="M92.0559 19.9885C104.506 7.12963 124.01 1.37103 135.616 7.1245C137.029 7.82507 138.257 8.66631 139.307 9.62281C138.042 8.16597 136.436 6.91591 134.467 5.93989C122.861 0.186426 103.357 5.94503 90.9068 18.8038C79.9754 30.0935 78.1219 43.1053 85.6939 50.004C79.5058 42.8731 81.7204 30.6627 92.0559 19.9885Z" fill="#2270A0"/>
<path d="M137.742 2.55651C151.039 9.1483 150.258 26.4296 135.997 41.1575C121.737 55.8854 99.4002 62.4804 86.1038 55.8887C72.8073 49.2969 73.5884 32.0155 87.8487 17.2876C102.109 2.55972 124.446 -4.03528 137.742 2.55651ZM89.3834 52.5015C100.992 58.2566 120.497 52.4979 132.943 39.6433C145.393 26.7846 146.075 11.6949 134.467 5.93973C122.861 0.186385 103.357 5.94499 90.9067 18.8037C78.4603 31.6583 77.7782 46.7481 89.3834 52.5015Z" fill="#459FE3"/>
<path d="M136.478 37.4082C135.642 38.4418 134.744 39.4602 133.781 40.4556C124.533 50.0077 111.054 56.0686 99.4441 55.8966C98.2038 55.8783 97.011 55.7809 95.8575 55.6223C96.0113 56.1565 96.1676 56.6896 96.3227 57.2234C96.7646 57.2478 97.2095 57.2674 97.6627 57.2741C110.303 57.4601 125.022 50.8143 135.159 40.3448C135.66 39.8277 136.145 39.3056 136.614 38.7791C136.566 38.3225 136.525 37.865 136.478 37.4082Z" fill="#2270A0"/>
<path d="M90.0687 17.9911C99.3199 8.43675 112.801 2.37367 124.412 2.5446C127.843 2.5951 130.952 3.19021 133.68 4.30854C133.633 3.60186 133.576 2.89559 133.531 2.18877C131.291 1.55199 128.834 1.20936 126.183 1.17031C113.542 0.984276 98.8237 7.63008 88.6864 18.1007C87.9575 18.8534 87.2741 19.6197 86.6128 20.3913C86.7115 20.8076 86.8039 21.2252 86.9032 21.6411C87.8697 20.4007 88.9186 19.1789 90.0687 17.9911Z" fill="#2270A0"/>
<path d="M109.745 48.6363C109.831 48.5302 109.901 48.4392 109.954 48.3628C110.942 47.0235 111.949 45.0923 112.977 42.5692L113.002 42.5135L113.014 42.486L113.027 42.4579L113.018 42.4452C113.506 41.2843 113.85 40.5248 114.048 40.1678C114.434 39.4983 114.971 39.0265 115.66 38.7505C116.175 38.535 117.38 38.2457 119.278 37.8808C120.281 37.6849 121.083 37.5245 121.685 37.3996C126.01 36.5074 128.561 35.6382 129.338 34.7914L129.498 34.5636C129.591 34.4211 129.616 34.2067 129.573 33.92C129.531 33.6329 129.357 33.3512 129.052 33.074L126.42 29.4708C126.414 29.3866 126.35 29.3049 126.229 29.2261C126.109 29.1474 126.048 29.108 126.048 29.108L125.949 29.0831L125.849 29.079C125.776 29.0674 125.668 29.0747 125.525 29.1007C125.382 29.1268 125.227 29.1743 125.06 29.2428C123.048 30.0821 121.12 30.7805 119.273 31.3371C118.165 31.6587 117.193 31.9214 116.356 32.1248C115.52 32.3283 114.885 32.4517 114.453 32.4944C114.019 32.5371 113.659 32.5534 113.371 32.543C113.083 32.5328 112.927 32.4797 112.902 32.3836C112.876 32.2872 112.854 32.1955 112.834 32.1075C112.879 31.898 112.987 31.6783 113.158 31.4487C113.328 31.2189 113.573 30.9715 113.891 30.7064C114.209 30.4413 114.488 30.22 114.728 30.0422C114.968 29.8649 115.313 29.6215 115.762 29.3137C116.211 29.0059 116.514 28.7957 116.672 28.6834C117.215 28.2955 117.809 27.8808 118.454 27.4391C119.099 26.9976 119.611 26.6481 119.988 26.3916C120.366 26.1348 120.762 25.858 121.177 25.562C121.592 25.266 121.906 25.019 122.121 24.8212C122.336 24.624 122.533 24.4161 122.713 24.1991C122.893 23.982 123.003 23.7732 123.044 23.5731C123.084 23.3728 123.08 23.1628 123.032 22.9436C122.886 22.3754 122.574 21.7414 122.097 21.0412C121.011 19.4564 120.124 18.5737 119.434 18.3932C119.151 18.3287 118.823 18.3221 118.45 18.3729C118.027 18.4461 117.84 18.5476 117.89 18.6771C118.121 19.2736 118.068 19.8504 117.732 20.4077L117.528 20.6674C117.385 20.859 117.097 21.1527 116.668 21.5483C116.238 21.9439 115.743 22.3544 115.183 22.7792C114.17 23.5663 113.276 24.2042 112.503 24.6928C111.729 25.1816 111.122 25.5551 110.68 25.8131C110.239 26.0711 109.862 26.2542 109.551 26.3622C109.24 26.4702 109.047 26.532 108.971 26.5475C108.896 26.563 108.845 26.5677 108.819 26.561C108.67 26.5025 108.553 26.4147 108.469 26.297C108.385 26.1792 108.384 25.9647 108.464 25.6536C108.544 25.3425 108.695 24.9716 108.917 24.5406C109.138 24.1096 109.482 23.556 109.95 22.8798C110.417 22.2038 110.992 21.4375 111.676 20.5812L112.155 19.9353C112.465 19.5234 112.925 18.9351 113.534 18.1705C114.143 17.4055 114.745 16.6838 115.34 16.0053C115.593 15.7237 115.749 15.4596 115.811 15.2127L115.83 15.1035C115.857 15.0208 115.87 14.9101 115.869 14.7716C115.867 14.6329 115.845 14.5033 115.801 14.3819L113.296 10.9552C113.044 10.602 112.737 10.4594 112.376 10.5271L112.211 10.5683C112.121 10.5942 111.998 10.6631 111.841 10.7754C111.683 10.8877 111.508 11.0507 111.316 11.2644C109.659 13.2083 108.106 15.1451 106.656 17.0751C105.205 19.0051 104.064 20.5974 103.232 21.8507C102.4 23.1047 101.638 24.3212 100.947 25.4999C100.255 26.6788 99.8189 27.4439 99.6379 27.7951C99.4565 28.1468 99.3249 28.4153 99.2418 28.6014L98.952 29.2843C98.7526 29.7312 98.5528 30.321 98.3526 31.054C98.1522 31.7873 97.9891 32.5572 97.8626 33.3644C97.737 34.1712 97.7521 34.9946 97.9086 35.8347C98.0647 36.675 98.3844 37.373 98.8667 37.9298L99.9004 39.3808C100.153 39.6442 100.469 39.7549 100.849 39.7126L100.992 39.6861C101.101 39.659 101.257 39.5959 101.456 39.4977C101.655 39.3997 101.863 39.2738 102.077 39.1209C102.685 38.6735 103.259 38.3056 103.797 38.0165C104.335 37.7274 104.758 37.5337 105.065 37.4351C105.372 37.3367 105.648 37.2764 105.891 37.2549C106.134 37.2333 106.289 37.231 106.355 37.2477C106.421 37.2639 106.469 37.2799 106.501 37.2947C106.76 37.415 106.818 37.7316 106.677 38.2453C106.536 38.7586 106.303 39.3112 105.981 39.903C105.659 40.495 105.31 41.1783 104.935 41.9535C104.56 42.7291 104.313 43.3497 104.192 43.8166L104.114 44.2526C104.062 44.5436 104.061 44.8746 104.11 45.2458C104.158 45.6166 104.29 45.8776 104.506 46.0287L106.893 49.1975C107.12 49.517 107.387 49.7014 107.691 49.7504C107.996 49.7995 108.267 49.7639 108.506 49.6449C108.744 49.5256 108.989 49.3538 109.24 49.1305C109.49 48.907 109.658 48.7421 109.745 48.6363Z" fill="#2270A0"/>
<path d="M109.354 46.7178C109.44 46.6117 109.51 46.5207 109.563 46.4443C110.551 45.1051 111.558 43.1738 112.586 40.6508L112.611 40.5951L112.623 40.5675L112.636 40.5395L112.627 40.5267C113.115 39.3659 113.459 38.6064 113.658 38.2493C114.043 37.5799 114.581 37.1081 115.269 36.8321C115.784 36.6166 116.99 36.3273 118.887 35.9624C119.89 35.7664 120.692 35.6061 121.294 35.4812C125.619 34.589 128.17 33.7198 128.947 32.873L129.107 32.6451C129.2 32.5027 129.225 32.2882 129.183 32.0015C129.14 31.7145 128.966 31.4327 128.661 31.1556L126.029 27.5523C126.023 27.4682 125.96 27.3864 125.839 27.3076C125.718 27.2289 125.657 27.1896 125.657 27.1896L125.559 27.1647L125.458 27.1605C125.386 27.1489 125.278 27.1562 125.134 27.1823C124.992 27.2083 124.836 27.2559 124.669 27.3243C122.658 28.1637 120.729 28.8621 118.882 29.4186C117.774 29.7403 116.802 30.0029 115.966 30.2063C115.13 30.4099 114.495 30.5332 114.062 30.576C113.628 30.6187 113.269 30.635 112.98 30.6245C112.692 30.6143 112.536 30.5613 112.511 30.4651C112.486 30.3688 112.463 30.2771 112.444 30.1891C112.489 29.9795 112.596 29.7599 112.767 29.5303C112.938 29.3004 113.182 29.0531 113.5 28.788C113.818 28.5229 114.097 28.3016 114.337 28.1238C114.577 27.9465 114.922 27.7031 115.371 27.3952C115.821 27.0875 116.124 26.8772 116.281 26.765C116.824 26.377 117.418 25.9623 118.063 25.5206C118.709 25.0792 119.22 24.7296 119.598 24.4731C119.975 24.2163 120.372 23.9395 120.786 23.6436C121.201 23.3476 121.515 23.1006 121.73 22.9028C121.946 22.7055 122.143 22.4977 122.323 22.2807C122.502 22.0635 122.612 21.8548 122.653 21.6546C122.694 21.4543 122.69 21.2443 122.642 21.0252C122.495 20.4569 122.184 19.8229 121.707 19.1228C120.621 17.5379 119.733 16.6552 119.043 16.4748C118.761 16.4103 118.432 16.4036 118.059 16.4545C117.636 16.5277 117.45 16.6291 117.499 16.7586C117.73 17.3551 117.677 17.932 117.341 18.4892L117.138 18.7489C116.994 18.9405 116.707 19.2343 116.277 19.6299C115.847 20.0255 115.352 20.4359 114.793 20.8607C113.779 21.6479 112.885 22.2857 112.112 22.7744C111.338 23.2631 110.731 23.6366 110.29 23.8947C109.848 24.1527 109.471 24.3358 109.16 24.4438C108.849 24.5517 108.656 24.6136 108.581 24.6291C108.506 24.6446 108.455 24.6492 108.429 24.6426C108.28 24.5841 108.162 24.4963 108.078 24.3786C107.994 24.2607 107.993 24.0463 108.073 23.7351C108.154 23.424 108.304 23.0531 108.526 22.6222C108.747 22.1911 109.092 21.6376 109.559 20.9614C110.026 20.2853 110.602 19.5191 111.286 18.6628L111.764 18.0169C112.074 17.605 112.534 17.0166 113.143 16.252C113.752 15.487 114.354 14.7653 114.95 14.0868C115.202 13.8053 115.358 13.5411 115.42 13.2943L115.439 13.1851C115.467 13.1024 115.479 12.9917 115.478 12.8531C115.476 12.7145 115.454 12.5848 115.41 12.4635L112.905 9.03679C112.653 8.6835 112.346 8.5409 111.985 8.60865L111.82 8.64987C111.731 8.67574 111.607 8.74463 111.45 8.85697C111.293 8.96925 111.118 9.13229 110.925 9.34597C109.269 11.2899 107.715 13.2267 106.265 15.1567C104.814 17.0866 103.673 18.6789 102.841 19.9322C102.009 21.1862 101.247 22.4027 100.556 23.5814C99.8645 24.7604 99.4281 25.5255 99.2472 25.8766C99.0658 26.2283 98.9341 26.4969 98.8511 26.683L98.5613 27.3659C98.3619 27.8127 98.1621 28.4026 97.9619 29.1356C97.7615 29.8689 97.5983 30.6387 97.4719 31.446C97.3463 32.2527 97.3613 33.0762 97.5178 33.9163C97.6739 34.7566 97.9937 35.4546 98.4759 36.0113L99.5097 37.4624C99.7625 37.7258 100.079 37.8365 100.458 37.7942L100.601 37.7677C100.711 37.7405 100.866 37.6775 101.065 37.5793C101.265 37.4813 101.472 37.3554 101.686 37.2025C102.295 36.7551 102.868 36.3872 103.406 36.098C103.944 35.809 104.367 35.6153 104.674 35.5167C104.982 35.4183 105.257 35.358 105.5 35.3365C105.743 35.3149 105.898 35.3126 105.964 35.3292C106.03 35.3455 106.078 35.3615 106.111 35.3763C106.369 35.4965 106.427 35.8131 106.286 36.3268C106.145 36.8401 105.913 37.3927 105.591 37.9846C105.268 38.5766 104.919 39.2599 104.544 40.0351C104.169 40.8106 103.922 41.4313 103.801 41.8982L103.723 42.3341C103.672 42.6252 103.67 42.9562 103.719 43.3274C103.768 43.6981 103.9 43.9591 104.115 44.1103L106.502 47.2791C106.729 47.5986 106.996 47.783 107.3 47.832C107.605 47.8811 107.877 47.8455 108.115 47.7265C108.353 47.6072 108.598 47.4354 108.849 47.2121C109.099 46.9886 109.267 46.8237 109.354 46.7178Z" fill="#5EB5F7"/>
<path d="M34.1221 139.914C34.252 139.936 34.3812 139.956 34.5078 139.97C34.5845 139.978 34.66 139.983 34.7355 139.988C34.854 139.996 34.9711 140 35.0864 140C35.1614 140 35.2356 139.999 35.3091 139.996C35.424 139.991 35.5369 139.981 35.6486 139.968C35.717 139.961 35.7858 139.954 35.853 139.943C35.9722 139.924 36.0885 139.898 36.204 139.869C36.2593 139.856 36.3159 139.846 36.3703 139.83C36.5379 139.782 36.7021 139.726 36.8612 139.658L47.9212 134.927C47.7621 134.995 47.5978 135.051 47.4301 135.099C47.376 135.115 47.3195 135.125 47.2645 135.139C47.1488 135.167 47.0325 135.193 46.913 135.212C46.8459 135.223 46.777 135.23 46.7088 135.238C46.5969 135.25 46.4839 135.26 46.369 135.265C46.2955 135.269 46.2214 135.27 46.1467 135.27C46.0312 135.269 45.9141 135.265 45.7955 135.257C45.72 135.252 45.6446 135.247 45.5678 135.239C45.4412 135.226 45.312 135.206 45.1822 135.184C45.1111 135.172 45.0409 135.162 44.9688 135.147C44.8077 135.115 44.6434 135.073 44.4775 135.027C44.4341 135.015 44.392 135.007 44.3483 134.994C44.1373 134.932 43.9223 134.859 43.7038 134.776C43.6587 134.759 43.6122 134.738 43.5667 134.72C43.3981 134.653 43.2278 134.581 43.0551 134.502C42.9823 134.469 42.9085 134.433 42.835 134.397C42.681 134.323 42.5256 134.243 42.3684 134.159C42.2943 134.119 42.2205 134.08 42.1456 134.039C41.9592 133.934 41.7704 133.823 41.5797 133.705C41.5366 133.679 41.4945 133.655 41.4513 133.628C41.4031 133.597 41.3533 133.562 41.305 133.53C41.0498 133.366 40.7911 133.19 40.5287 133.002C40.4293 132.931 40.3284 132.855 40.228 132.781C40.1326 132.71 40.035 132.631 39.9386 132.557L45.8364 130.035L45.8358 130.035L45.8362 130.035L45.8363 130.035H45.8364C46.0088 129.961 46.1735 129.87 46.3341 129.77C46.3829 129.739 46.4298 129.705 46.4774 129.672C46.5908 129.594 46.7012 129.509 46.8083 129.418C46.8559 129.377 46.9036 129.336 46.9499 129.293C47.0682 129.182 47.182 129.062 47.292 128.934C47.3173 128.904 47.3443 128.879 47.3691 128.848C47.5009 128.687 47.6257 128.512 47.7448 128.325C47.7765 128.276 47.8059 128.221 47.8368 128.17C47.9236 128.025 48.0073 127.873 48.0868 127.714C48.1216 127.645 48.1555 127.574 48.1887 127.502C48.2652 127.336 48.3377 127.163 48.4067 126.983C48.4312 126.919 48.4571 126.859 48.4804 126.794C48.489 126.77 48.499 126.749 48.5074 126.725C48.5296 126.661 48.5456 126.587 48.5669 126.522C48.6462 126.28 48.7208 126.03 48.7878 125.767C48.8187 125.646 48.8468 125.52 48.8751 125.394C48.9314 125.143 48.9821 124.883 49.0277 124.614C49.0418 124.531 49.0617 124.458 49.0748 124.373C49.084 124.313 49.0893 124.246 49.0981 124.185C49.124 124.005 49.1454 123.818 49.1669 123.63C49.1878 123.446 49.2087 123.262 49.2253 123.071C49.2421 122.875 49.2545 122.672 49.2669 122.468C49.2749 122.336 49.2879 122.211 49.294 122.076C49.2973 122.003 49.2967 121.924 49.2994 121.85C49.3053 121.685 49.3082 121.516 49.3112 121.347C49.3155 121.109 49.3176 120.867 49.3161 120.62C49.315 120.441 49.3123 120.26 49.3081 120.078C49.3055 119.961 49.3069 119.851 49.303 119.733C49.2982 119.585 49.2876 119.428 49.2808 119.277C49.2734 119.112 49.2662 118.948 49.2564 118.78C49.2387 118.475 49.2155 118.162 49.19 117.846C49.178 117.696 49.1683 117.55 49.1544 117.397C49.1506 117.354 49.1484 117.314 49.1444 117.27C49.1044 116.843 49.0574 116.406 49.0035 115.959C48.9994 115.925 48.9938 115.889 48.9896 115.855C48.9398 115.449 48.8861 115.038 48.8249 114.617C48.8101 114.516 48.7948 114.413 48.7795 114.311C48.7128 113.868 48.6398 113.421 48.562 112.971C48.5362 112.822 48.5069 112.671 48.4799 112.521C48.4318 112.254 48.3853 111.988 48.3335 111.718C48.3274 111.687 48.3201 111.655 48.314 111.623C48.2268 111.173 48.1339 110.72 48.0364 110.264C48.0246 110.209 48.0144 110.154 48.0022 110.098C47.8917 109.587 47.7743 109.071 47.6514 108.554C47.6455 108.529 47.6405 108.504 47.6346 108.48C47.6119 108.384 47.5857 108.288 47.5627 108.192C47.4534 107.74 47.3401 107.287 47.2218 106.831C47.1729 106.642 47.1224 106.453 47.072 106.264C46.9642 105.859 46.8527 105.453 46.7381 105.046C46.7052 104.929 46.6759 104.814 46.6425 104.697C46.6271 104.643 46.6092 104.589 46.5938 104.535C46.3831 103.802 46.1618 103.066 45.9306 102.328C45.8864 102.186 45.8411 102.045 45.7962 101.904C45.5553 101.146 45.3069 100.387 45.0461 99.627C45.0409 99.6121 45.0365 99.5973 45.0314 99.5824C45.0079 99.5139 44.9822 99.4455 44.9584 99.377C44.7698 98.8315 44.5758 98.2861 44.3774 97.7406C44.3119 97.5604 44.2458 97.3804 44.1792 97.2003C43.987 96.6803 43.7909 96.1609 43.5905 95.642C43.5466 95.5286 43.5044 95.4149 43.4601 95.3016C43.2183 94.6814 42.9702 94.063 42.7172 93.4459C42.6532 93.2897 42.5876 93.1343 42.5229 92.9782C42.3217 92.4936 42.1175 92.0106 41.9099 91.5289C41.8368 91.3592 41.7642 91.1896 41.6902 91.0203C41.6446 90.9158 41.6005 90.8103 41.5545 90.7059C41.5534 90.7064 41.5518 90.7071 41.5507 90.7075V90.7074C41.552 90.707 41.5533 90.7064 41.5545 90.7059C41.3867 90.3247 41.2142 89.9467 41.0427 89.5681C40.9696 89.4066 40.8983 89.244 40.8245 89.0831C40.535 88.4516 40.2407 87.8241 39.9415 87.2015C39.874 87.061 39.8044 86.9228 39.7363 86.7828C39.5025 86.3015 39.267 85.8224 39.0279 85.3474C38.9194 85.1317 38.8091 84.9186 38.6995 84.7043C38.4956 84.3059 38.2907 83.9095 38.0834 83.5164C38.0272 83.4099 37.9729 83.3007 37.9165 83.1947C37.8655 83.0989 37.8124 83.0073 37.7613 82.9118C37.4115 82.2587 37.0582 81.6124 36.6998 80.9768C36.6652 80.9153 36.6313 80.8522 36.5965 80.7907C36.2085 80.1059 35.8147 79.4356 35.418 78.7738C35.3727 78.6982 35.3287 78.6186 35.2833 78.5434C35.2067 78.4165 35.1287 78.2952 35.0519 78.1692C34.861 77.8562 34.6693 77.5462 34.4766 77.2392C34.3395 77.0205 34.2021 76.8032 34.0642 76.5878C33.8687 76.2825 33.6723 75.9818 33.4754 75.6832C33.3878 75.5503 33.3013 75.4122 33.2135 75.2807C33.1596 75.1999 33.1049 75.1231 33.0508 75.043C32.9025 74.8228 32.7538 74.6068 32.6047 74.3906C32.4427 74.1554 32.2806 73.9211 32.1178 73.6909C31.9681 73.4793 31.8182 73.2719 31.668 73.0645C31.5675 72.9258 31.4677 72.7821 31.367 72.6453C31.2993 72.5532 31.2309 72.466 31.1629 72.3747C31.0366 72.2049 30.9099 72.0378 30.7832 71.8711C30.6042 71.6359 30.4251 71.4041 30.2457 71.1753C30.1183 71.013 29.9908 70.8517 29.8631 70.6926C29.7924 70.6046 29.722 70.5124 29.6514 70.4254C29.5362 70.2838 29.4207 70.1497 29.3053 70.0111C29.1889 69.871 29.0726 69.7298 28.956 69.5926C28.7535 69.3542 28.5509 69.1234 28.3482 68.8944C28.2472 68.7802 28.1464 68.6628 28.0454 68.5512C28.0215 68.5249 27.9978 68.4965 27.9739 68.4702C27.6959 68.1639 27.4177 67.8665 27.1394 67.5786C26.8648 67.2942 26.5937 67.0235 26.3253 66.7635C26.3135 66.752 26.3013 66.7388 26.2894 66.7273C26.2211 66.6615 26.1551 66.6039 26.0872 66.5395C25.8944 66.3564 25.7022 66.1758 25.5128 66.0054C25.4116 65.9144 25.3122 65.8297 25.2121 65.7424C25.0467 65.598 24.882 65.4558 24.7193 65.3211C24.6787 65.2876 24.6367 65.2491 24.5964 65.2162C24.5412 65.1711 24.4885 65.1344 24.4336 65.0905C24.237 64.9332 24.0428 64.7832 23.8505 64.6404C23.7625 64.575 23.6742 64.5086 23.5871 64.4462C23.3579 64.282 23.1318 64.1284 22.909 63.9849C22.8755 63.9634 22.8404 63.9367 22.807 63.9156C22.7986 63.9103 22.7906 63.9059 22.7822 63.9006C22.7448 63.8771 22.7084 63.8568 22.6711 63.8338C22.5042 63.7308 22.3391 63.6331 22.1759 63.5419C22.1107 63.5054 22.0463 63.4715 21.9816 63.4369C21.8443 63.3634 21.7085 63.294 21.574 63.229C21.5101 63.198 21.4461 63.1668 21.3827 63.1378C21.2314 63.0684 21.0823 63.0052 20.9347 62.9467C20.8953 62.9311 20.855 62.9128 20.8159 62.898C20.8057 62.8941 20.7952 62.8891 20.785 62.8852C20.6046 62.8176 20.4274 62.7588 20.2528 62.7074C20.2153 62.6964 20.1792 62.6894 20.1419 62.6791C19.9966 62.639 19.8526 62.6026 19.7114 62.5739C19.6486 62.5611 19.5875 62.5529 19.5256 62.5422C19.4118 62.5229 19.2987 62.5054 19.1878 62.4936C19.1215 62.4866 19.0562 62.4825 18.9907 62.4782C18.8868 62.4713 18.7841 62.4672 18.6827 62.467C18.6177 62.467 18.553 62.468 18.4892 62.4707C18.3888 62.475 18.2904 62.4838 18.1928 62.4949C18.133 62.5017 18.073 62.5076 18.0143 62.517C17.9099 62.5337 17.8082 62.5567 17.7073 62.5814C17.6593 62.5932 17.6101 62.6022 17.5628 62.6158C17.4168 62.6577 17.2738 62.7067 17.1354 62.7659C17.135 62.766 17.1346 62.766 17.1342 62.7662L14.3912 63.9396L11.2229 65.2948C11.2259 65.2672 11.2284 65.2389 11.2316 65.2115C11.2561 64.9961 11.2808 64.7812 11.3105 64.5745C11.3582 64.2425 11.4085 63.9148 11.4696 63.6054C11.4733 63.5865 11.4777 63.5689 11.4816 63.5499C11.5462 63.2279 11.6194 62.9214 11.6982 62.6245C11.7152 62.56 11.7318 62.4947 11.7496 62.4315C11.8321 62.1371 11.9214 61.8548 12.0181 61.5861C12.0446 61.5118 12.0744 61.4431 12.102 61.3708C12.1813 61.1644 12.2643 60.9652 12.3522 60.775C12.3902 60.6925 12.4292 60.6115 12.469 60.5321C12.5599 60.3501 12.6556 60.177 12.7548 60.0112C12.7904 59.9517 12.8241 59.8889 12.8608 59.8317C12.9973 59.6179 13.1402 59.4172 13.291 59.2327C13.3193 59.1981 13.3501 59.1688 13.3788 59.1353C13.505 58.9884 13.6356 58.8507 13.7711 58.7235C13.8242 58.6739 13.8787 58.6274 13.9332 58.5808C14.0561 58.4756 14.1827 58.3786 14.3128 58.289C14.3673 58.2516 14.4207 58.2121 14.4763 58.1774C14.6605 58.0625 14.8494 57.958 15.0468 57.8735L3.98694 62.6043C3.78941 62.6887 3.60068 62.7932 3.41654 62.908C3.36069 62.9429 3.30692 62.9825 3.25223 63.0201C3.12249 63.1095 2.99608 63.2063 2.87352 63.3112C2.81894 63.358 2.76426 63.4046 2.71101 63.4544C2.57544 63.5816 2.44481 63.7192 2.31866 63.8663C2.29003 63.8997 2.25941 63.9289 2.23122 63.9634C2.0802 64.1479 1.93718 64.3488 1.80062 64.5626C1.76426 64.6197 1.73049 64.6821 1.69511 64.7413C1.59582 64.9073 1.50011 65.0804 1.40898 65.2626C1.36911 65.3423 1.33015 65.4234 1.2919 65.5063C1.20427 65.6959 1.12158 65.8946 1.04248 66.1003C1.01456 66.1732 0.984746 66.2425 0.957812 66.3172C0.94803 66.3445 0.936632 66.3686 0.927015 66.3961C0.841541 66.6397 0.763795 66.8973 0.689815 67.1615C0.671855 67.2254 0.655155 67.2912 0.63792 67.3563C0.559269 67.653 0.486002 67.959 0.421626 68.2806C0.417859 68.2995 0.413283 68.3172 0.409502 68.3361C0.361388 68.5805 0.317028 68.8314 0.277161 69.09C0.266571 69.1587 0.260557 69.235 0.250501 69.3047C0.220786 69.5114 0.196085 69.7264 0.171576 69.942C0.147601 70.1528 0.12364 70.3637 0.104693 70.5829C0.0852944 70.8064 0.0711972 71.0382 0.0571959 71.2702C0.0479484 71.4228 0.0328649 71.566 0.0259464 71.7224C0.0221789 71.8064 0.0228092 71.8972 0.0197541 71.9823C0.0130274 72.17 0.00961615 72.363 0.00620491 72.5557C0.00125928 72.8298 -0.00116558 73.1075 0.000546864 73.3919C0.00179351 73.5952 0.00502669 73.8013 0.00979428 74.01C0.0127535 74.1435 0.0112328 74.27 0.0156304 74.4057C0.0211926 74.5755 0.0333169 74.7553 0.0412081 74.9286C0.049661 75.1177 0.057826 75.3061 0.0690463 75.4992C0.0892536 75.8469 0.115913 76.2038 0.14482 76.5643C0.158739 76.7375 0.16996 76.9066 0.18603 77.0828C0.190441 77.132 0.19277 77.1782 0.197442 77.2275C0.243144 77.7164 0.297012 78.217 0.358785 78.7284C0.363717 78.7706 0.370718 78.8153 0.375924 78.8576C0.432586 79.3193 0.493633 79.7871 0.563393 80.2666C0.580367 80.383 0.597697 80.5 0.615384 80.6176C0.695734 81.1503 0.784618 81.6889 0.878983 82.2311C0.909424 82.4062 0.943359 82.5833 0.975238 82.7593C1.02533 83.0351 1.07274 83.3094 1.12633 83.5873C1.1424 83.671 1.16163 83.7567 1.17805 83.8406C1.24108 84.1629 1.30895 84.4878 1.37656 84.8127C1.43483 85.0924 1.49175 85.3713 1.55335 85.6528C1.62571 85.9841 1.7032 86.3177 1.78005 86.6512C1.82988 86.8671 1.87531 87.0807 1.92694 87.2975C1.94086 87.3561 1.95711 87.4158 1.97121 87.4745C2.11019 88.0531 2.25626 88.635 2.40808 89.2194C2.43081 89.3067 2.45128 89.3931 2.47425 89.4806C2.65105 90.1537 2.83716 90.8305 3.03019 91.5096C3.04178 91.5502 3.05192 91.5905 3.06351 91.6312C3.08928 91.7212 3.11908 91.8125 3.14512 91.9026C3.36743 92.6734 3.60041 93.4474 3.84247 94.2237C3.89634 94.3962 3.94869 94.5683 4.00354 94.741C4.27343 95.5928 4.55473 96.4463 4.84688 97.3013C4.86851 97.3644 4.88755 97.4272 4.90919 97.4904C4.96045 97.6393 5.01611 97.7884 5.06801 97.9375C5.2492 98.4584 5.4338 98.9789 5.62279 99.4998C5.71005 99.7405 5.79742 99.9809 5.8863 100.221C6.09298 100.781 6.30424 101.339 6.51928 101.897C6.58652 102.072 6.6517 102.246 6.71976 102.421C7.00267 103.146 7.29205 103.869 7.58806 104.59C7.65612 104.755 7.72651 104.92 7.79519 105.085C8.02801 105.646 8.26412 106.205 8.50457 106.762C8.60684 106.999 8.71018 107.235 8.81379 107.472C9.03681 107.981 9.26271 108.487 9.49147 108.992C9.59096 109.211 9.68953 109.431 9.79 109.649C10.0985 110.32 10.4109 110.988 10.729 111.65C10.7462 111.686 10.7628 111.723 10.7802 111.759C11.1155 112.455 11.4571 113.144 11.8021 113.829C11.906 114.035 12.0113 114.239 12.1159 114.444C12.365 114.932 12.6161 115.416 12.8698 115.897C12.9335 116.018 12.9953 116.142 13.0594 116.263C13.104 116.347 13.1505 116.427 13.1953 116.511C13.6236 117.312 14.0565 118.104 14.496 118.882C14.557 118.99 14.6189 119.095 14.6801 119.203C15.0862 119.916 15.4965 120.618 15.9105 121.309C15.9659 121.401 16.0196 121.498 16.0751 121.59C16.111 121.65 16.1477 121.706 16.1837 121.766C16.4887 122.269 16.7959 122.765 17.1047 123.255C17.161 123.344 17.2166 123.436 17.2732 123.525C17.6381 124.1 18.0058 124.664 18.3752 125.219C18.3988 125.254 18.422 125.291 18.4456 125.327C18.5653 125.506 18.6864 125.677 18.8064 125.854C19.0024 126.143 19.1981 126.432 19.3951 126.715C19.5469 126.933 19.6993 127.144 19.8516 127.358C20.0444 127.629 20.2373 127.9 20.431 128.165C20.4741 128.224 20.5168 128.286 20.5601 128.344C20.6929 128.525 20.8265 128.697 20.9597 128.875C21.113 129.079 21.2663 129.285 21.4201 129.485C21.6017 129.721 21.7837 129.951 21.9657 130.181C22.1182 130.374 22.2703 130.569 22.423 130.758C22.4568 130.8 22.4906 130.845 22.5246 130.886C22.6872 131.086 22.8503 131.277 23.0131 131.471C23.1469 131.632 23.2806 131.796 23.4146 131.952C23.6319 132.207 23.8496 132.452 24.0672 132.697C24.181 132.825 24.2945 132.958 24.4084 133.084C24.4207 133.097 24.433 133.112 24.4452 133.125C24.7637 133.476 25.0824 133.817 25.4008 134.146C25.7154 134.472 26.0261 134.782 26.3334 135.08C26.3469 135.093 26.3608 135.108 26.3742 135.121C26.4518 135.196 26.5269 135.261 26.6039 135.334C26.8256 135.545 27.0466 135.752 27.2643 135.948C27.3795 136.052 27.4926 136.148 27.6066 136.248C27.7967 136.414 27.9859 136.577 28.1728 136.732C28.219 136.77 28.267 136.814 28.3131 136.852C28.3763 136.903 28.4368 136.945 28.4997 136.996C28.7248 137.176 28.9473 137.348 29.1675 137.511C29.2683 137.586 29.3692 137.662 29.4689 137.733C29.731 137.921 29.9894 138.097 30.2442 138.261C30.2831 138.286 30.3238 138.317 30.3625 138.341C30.3722 138.347 30.3817 138.352 30.3915 138.359C30.4345 138.386 30.4763 138.409 30.519 138.435C30.71 138.553 30.8991 138.665 31.0858 138.769C31.1605 138.811 31.2343 138.85 31.3083 138.89C31.4655 138.974 31.621 139.053 31.775 139.128C31.8486 139.163 31.9223 139.199 31.995 139.233C32.1677 139.312 32.3381 139.384 32.5067 139.451C32.5522 139.469 32.5986 139.49 32.644 139.507C32.6553 139.511 32.6672 139.517 32.6786 139.521C32.8853 139.599 33.0884 139.666 33.2883 139.725C33.332 139.738 33.374 139.746 33.4173 139.758C33.5833 139.804 33.7477 139.845 33.9088 139.878C33.9809 139.893 34.051 139.902 34.1221 139.914ZM14.4527 70.7361C14.6422 70.9065 14.8344 71.0872 15.0273 71.2701C15.1069 71.3457 15.1852 71.4165 15.2654 71.4942C15.5337 71.7543 15.8049 72.0248 16.0795 72.3092C16.3815 72.6221 16.6838 72.948 16.9858 73.2824C17.0862 73.3935 17.1865 73.5102 17.2867 73.6236C17.4899 73.8532 17.6931 74.0846 17.896 74.3234C18.0126 74.4605 18.1288 74.6015 18.2451 74.7415C18.4316 74.9658 18.6177 75.1924 18.8037 75.4241C18.9309 75.5826 19.0579 75.7434 19.185 75.9052C19.3645 76.1341 19.544 76.3662 19.723 76.6017C19.8499 76.7686 19.9768 76.9361 20.1034 77.1062C20.2719 77.3323 20.4398 77.563 20.6077 77.7948C20.7579 78.0022 20.9082 78.2101 21.0578 78.4219C21.2205 78.6518 21.3825 78.886 21.5444 79.1208C21.5942 79.1931 21.6439 79.2664 21.6937 79.3392L17.2724 81.2303L17.3383 81.7433L14.9816 82.7512C14.9386 82.5524 14.8978 82.3549 14.8567 82.1571C14.7974 81.8727 14.738 81.5881 14.6827 81.3059C14.621 80.9902 14.5629 80.6768 14.5061 80.3642C14.4782 80.21 14.4484 80.0546 14.4217 79.9012C14.3393 79.428 14.2617 78.9576 14.1916 78.4925C14.1123 77.9662 14.0436 77.4541 13.982 76.9519C13.9776 76.9165 13.9718 76.879 13.9675 76.8436C13.9082 76.3515 13.8591 75.8737 13.8165 75.4054C13.8027 75.2526 13.793 75.1058 13.781 74.9556C13.7555 74.6402 13.7321 74.3276 13.7145 74.0233C13.7047 73.8553 13.6976 73.6911 13.6903 73.5264C13.6779 73.2537 13.6686 72.9855 13.6627 72.7225C13.6587 72.5408 13.6559 72.3611 13.6547 72.184C13.6532 71.9356 13.6553 71.6929 13.6596 71.4536C13.6627 71.2854 13.6655 71.1171 13.6715 70.9534C13.6791 70.7409 13.6916 70.536 13.7041 70.3311C13.7087 70.2543 13.7145 70.1793 13.7198 70.1036C13.8629 70.2227 14.007 70.3466 14.1521 70.4731C14.2522 70.5604 14.3517 70.6451 14.4527 70.7361ZM38.191 127.43C38.0468 127.31 37.9013 127.185 37.755 127.057C37.6555 126.97 37.5567 126.886 37.4562 126.796C37.2657 126.624 37.0725 126.443 36.8785 126.259C36.7999 126.184 36.7225 126.114 36.6433 126.037C36.3746 125.777 36.1034 125.506 35.8286 125.222C35.5397 124.923 35.2508 124.612 34.9619 124.294C34.8643 124.186 34.7667 124.072 34.6691 123.962C34.4771 123.745 34.285 123.529 34.0932 123.305C33.978 123.17 33.8632 123.029 33.7481 122.892C33.5747 122.684 33.4013 122.477 33.2282 122.263C33.0951 122.099 32.9623 121.928 32.8294 121.76C32.6705 121.559 32.5115 121.358 32.353 121.152C32.2191 120.978 32.0857 120.798 31.9523 120.621C31.7976 120.415 31.6428 120.209 31.4887 119.998C31.3195 119.767 31.1511 119.53 30.9827 119.294C30.9602 119.262 30.9379 119.231 30.9154 119.199L35.2059 117.364L35.1483 116.921L37.1914 116.047C37.2115 116.149 37.2341 116.251 37.2536 116.352C37.3124 116.655 37.3666 116.955 37.4205 117.256C37.4474 117.404 37.4764 117.554 37.5021 117.702C37.5798 118.152 37.6528 118.599 37.7195 119.042C37.7985 119.566 37.8668 120.075 37.9283 120.576C37.9328 120.613 37.939 120.653 37.9436 120.691C38.0029 121.183 38.052 121.66 38.0944 122.128C38.1083 122.281 38.118 122.427 38.1301 122.577C38.1554 122.893 38.1787 123.205 38.1964 123.51C38.2062 123.678 38.2133 123.843 38.2208 124.008C38.233 124.28 38.2422 124.547 38.2481 124.81C38.2522 124.992 38.2551 125.172 38.2561 125.349C38.2577 125.597 38.2555 125.839 38.2513 126.078C38.2481 126.247 38.2454 126.416 38.2394 126.58C38.2318 126.792 38.2192 126.996 38.2069 127.2C38.2022 127.277 38.1963 127.353 38.191 127.43Z" fill="#F38A08"/>
<path d="M20.8894 127.831L21.0166 128.009C21.0972 128.118 21.7401 128.97 21.8699 129.14C22.0216 129.338 22.1745 129.531 22.327 129.723L22.5224 129.972C22.6358 130.116 22.7491 130.26 22.8663 130.404L22.9645 130.529C23.0681 130.656 23.1726 130.78 23.2764 130.904L23.845 131.584C24.0457 131.819 24.2469 132.045 24.4477 132.271L24.8649 132.744C25.1798 133.09 25.4945 133.426 25.8088 133.752C25.9709 133.92 26.1294 134.074 26.2895 134.234C29.9255 131.926 33.5656 129.609 37.2403 127.359L37.0786 127.217C36.8847 127.042 36.6872 126.857 36.4894 126.669L36.2499 126.444C35.9771 126.18 35.7013 125.904 35.4221 125.615C35.1293 125.312 34.837 124.998 34.5435 124.674L34.1553 124.235C33.9911 124.05 33.8269 123.865 33.6632 123.673L33.2654 123.196C33.1069 123.006 32.9478 122.816 32.7894 122.62C32.6932 122.502 32.2818 121.978 32.2818 121.978C32.156 121.819 32.0299 121.66 31.9047 121.497C31.7915 121.349 31.4611 120.908 31.4611 120.908C31.3184 120.718 31.1751 120.528 31.0328 120.333C30.8624 120.1 30.6927 119.862 30.5222 119.622L30.0492 118.954L34.5903 117.011L34.5327 116.568L37.6102 115.252L37.8099 116.244C37.8692 116.549 37.924 116.852 37.9782 117.155L38.0605 117.605C38.1393 118.059 38.2127 118.51 38.2801 118.957C38.3594 119.486 38.4287 120.001 38.4979 120.56L38.5062 120.623C38.566 121.12 38.6162 121.604 38.6589 122.077L38.6951 122.532C38.7205 122.851 38.7444 123.168 38.7623 123.475C38.7703 123.612 38.7869 123.982 38.7869 123.982C38.7996 124.258 38.8088 124.53 38.8148 124.796C38.8193 124.981 38.822 125.164 38.8233 125.347C38.8241 125.599 38.8222 125.845 38.818 126.089L38.8109 126.403C42.0858 124.421 45.3919 122.501 48.7502 120.694C48.7502 120.67 48.751 120.647 48.7508 120.623C48.75 120.447 48.7471 120.269 48.7426 120.089L48.7381 119.753L48.6915 118.812C48.6742 118.512 48.6517 118.203 48.627 117.892L48.5817 117.323C48.5418 116.901 48.4954 116.468 48.4365 115.984L48.4288 115.923C48.3794 115.522 48.3265 115.116 48.2654 114.699L48.2207 114.395C48.1543 113.956 48.0819 113.514 48.0053 113.069L47.8909 112.439C47.8541 112.235 47.8176 112.031 47.7724 111.796L47.7593 111.731C47.6726 111.285 47.58 110.834 47.4841 110.384L47.4499 110.218C47.34 109.71 47.2235 109.198 47.1016 108.684L47.0135 108.326C46.9043 107.877 46.7921 107.426 46.6745 106.973L46.5255 106.41C46.4188 106.007 46.3079 105.604 46.1938 105.199L46.0987 104.852L46.0505 104.691C45.8408 103.963 45.6211 103.231 45.3907 102.496L45.2575 102.075C45.0182 101.322 44.7713 100.567 44.4968 99.7669L44.4242 99.5623C44.2364 99.019 44.044 98.4771 43.8458 97.9338L43.6489 97.3968C43.4577 96.8792 43.2623 96.362 43.0642 95.8479L42.9328 95.5073C42.6928 94.89 42.4457 94.2748 42.1937 93.6598L42.0006 93.1953C41.8007 92.7127 41.597 92.2324 41.3908 91.7529L41.0375 90.9342C40.9123 90.6499 40.7846 90.3678 40.6568 90.0857L40.3106 89.3189C40.0225 88.6906 39.7299 88.0666 39.4316 87.446L39.2278 87.0304C38.9954 86.5509 38.7611 86.0749 38.5229 85.6022L38.1961 84.9621C37.9934 84.5661 37.7896 84.1716 37.5841 83.7822L37.418 83.4616L37.2628 83.1796C36.9147 82.53 36.5638 81.8871 36.2087 81.2567L36.105 81.0702C35.7189 80.3892 35.328 79.723 34.9334 79.066L34.7985 78.8352L34.5702 78.4651C34.38 78.1537 34.1899 77.8455 33.9982 77.5402C33.8617 77.3228 33.7251 77.1072 33.5885 76.8933C33.3944 76.5901 33.1999 76.292 33.0024 75.9935L32.7443 75.5959L32.5817 75.3587C32.4618 75.1802 32.1393 74.7119 32.1393 74.7119C31.9791 74.4784 31.8177 74.2463 31.6568 74.0183C31.5082 73.8087 30.9115 72.9805 30.9115 72.9805C30.9115 72.9805 30.4588 72.3787 30.3337 72.2143C30.1562 71.9814 29.9795 71.7518 29.8007 71.5248C29.6751 71.3637 29.2139 70.7835 29.2139 70.7835L28.5254 69.9597C28.3253 69.7245 28.1254 69.4964 27.9235 69.2687L27.5554 68.8512C27.2816 68.5493 27.0072 68.2559 26.7327 67.9718C26.463 67.6923 26.1959 67.4259 25.8964 67.1346L25.6986 66.9504C25.5092 66.7707 25.3212 66.5938 25.1353 66.4265L24.8398 66.1685C24.6788 66.0276 24.5178 65.8885 24.3607 65.7587L24.2414 65.6569L24.0812 65.5331C23.8898 65.3802 23.7014 65.2341 23.5145 65.0956L23.2582 64.9069C23.0367 64.7481 22.8183 64.5995 22.6019 64.4604L22.5109 64.3978L22.374 64.3157C22.2148 64.2167 22.0559 64.1232 21.9009 64.0361L21.8589 64.0137C14.5956 67.4569 7.43827 71.0928 0.627197 75.327C0.630252 75.3854 0.632855 75.4365 0.634568 75.4652C0.654679 75.8092 0.681257 76.1619 0.709712 76.5193L0.761525 77.1745C0.807131 77.6585 0.860547 78.1538 0.928512 78.7136L0.93839 78.7886C0.994683 79.2458 1.05539 79.7091 1.12424 80.1845L1.1756 80.5326C1.25587 81.0609 1.3434 81.5956 1.43696 82.133C1.43696 82.133 1.64552 83.285 1.68279 83.4801L1.73397 83.7313C1.79277 84.0329 1.85634 84.3362 1.91963 84.6398L1.93193 84.6971C1.93193 84.6971 2.05557 85.2947 2.1071 85.5308C2.17569 85.8451 2.24861 86.1619 2.33201 86.5225L2.47728 87.163L2.52236 87.3422C2.66062 87.9167 2.80571 88.4953 2.95726 89.0771L3.02226 89.3359C3.19842 90.006 3.38383 90.6786 3.57381 91.3494L3.68981 91.7448C3.91103 92.5124 4.14259 93.2822 4.38402 94.0553L4.54375 94.5693C4.81265 95.417 5.09214 96.2665 5.38223 97.1155L5.44543 97.3066L5.60346 97.7506C5.78383 98.2691 5.96726 98.7871 6.15526 99.3053L6.41779 100.024C6.62376 100.581 6.83412 101.137 7.04825 101.692L7.24784 102.215C7.5294 102.936 7.81814 103.657 8.11174 104.373L8.31887 104.867C8.55069 105.425 8.7852 105.983 9.02466 106.537L9.33306 107.244C9.55483 107.75 9.7801 108.255 10.0074 108.757L10.3049 109.411C10.6122 110.08 10.9232 110.745 11.2385 111.402L11.2907 111.512C11.6248 112.206 11.9648 112.891 12.308 113.573L12.6201 114.186C12.8687 114.671 13.1188 115.154 13.3719 115.634L13.5594 115.995L13.6953 116.243C14.1209 117.04 14.5523 117.828 14.9888 118.602L15.1726 118.922C15.5763 119.632 15.9849 120.329 16.3974 121.018L16.5595 121.295L16.6683 121.472C16.9715 121.971 17.277 122.464 17.5843 122.952L17.7519 123.221C18.1144 123.793 18.4799 124.352 18.8468 124.904L19.3561 125.655C19.5238 125.902 19.6912 126.149 19.8604 126.39C19.9719 126.55 20.3945 127.143 20.3945 127.143C20.5587 127.373 20.723 127.604 20.8894 127.831ZM17.8893 81.5829L17.9557 82.0954L14.5742 83.5414L14.4288 82.8712L14.2898 82.2082C14.2346 81.9428 14.1795 81.6775 14.1281 81.4145C14.0655 81.0965 14.0068 80.7804 13.9495 80.4641L13.8647 79.9979C13.7818 79.5213 13.7033 79.0467 13.6321 78.5764C13.5525 78.0444 13.483 77.5273 13.4155 76.98L13.4064 76.9116C13.3461 76.4139 13.297 75.93 13.2535 75.4556L13.2178 75.0012C13.1915 74.6807 13.1681 74.3642 13.1506 74.0577C13.142 73.916 13.1256 73.5522 13.1256 73.5522C13.1131 73.2742 13.1033 73.0019 13.0973 72.7343C13.0936 72.5504 13.0905 72.3679 13.0893 72.1871C13.0877 71.9338 13.0898 71.6871 13.094 71.4429C13.094 71.4429 13.1011 71.077 13.106 70.9315C13.1137 70.731 13.1255 70.5372 13.1396 70.2962L13.2347 68.9601L14.0832 69.6683C14.2286 69.7895 14.3764 69.916 14.5243 70.0451C14.5243 70.0451 14.7563 70.246 14.8318 70.3145C15.0245 70.4877 15.2212 70.6721 15.4181 70.8589L15.6605 71.0873C15.9324 71.3513 16.2082 71.6265 16.487 71.9154C16.7935 72.233 17.1 72.5628 17.4053 72.901L17.7109 73.2475C17.917 73.48 18.1221 73.7139 18.3275 73.9555L18.6813 74.3788C18.8691 74.6052 19.0575 74.8348 19.2451 75.0686C19.3736 75.2284 19.5021 75.3912 19.6305 75.5545C19.812 75.7858 19.9925 76.0197 20.1745 76.2582C20.3024 76.4265 20.4307 76.5956 20.558 76.7672C20.7278 76.9951 20.8969 77.2282 21.0667 77.4613C21.2181 77.6708 21.3701 77.8805 21.5203 78.0938C21.6711 78.3066 21.8211 78.5239 21.9717 78.7413L22.5509 79.5885L17.8893 81.5829Z" fill="#DC7601"/>
<path d="M15.1718 118.922C15.5756 119.632 15.9841 120.329 16.3967 121.018L16.5587 121.295L16.6675 121.472C16.9707 121.971 17.2763 122.464 17.5835 122.952L17.7511 123.221C18.1137 123.793 18.4791 124.352 18.846 124.904L19.3554 125.655C19.523 125.902 19.6904 126.149 19.8596 126.39C19.8987 126.447 19.9765 126.556 20.0604 126.675C23.628 124.437 27.1948 122.197 30.7508 119.941C30.6745 119.834 30.5981 119.729 30.5215 119.622L30.0484 118.954L34.5895 117.011L34.5319 116.568L37.6094 115.252L37.6628 115.517C40.6668 113.572 43.6566 111.607 46.6224 109.607C46.8208 109.473 47.0197 109.337 47.2183 109.202C47.1785 109.029 47.142 108.858 47.1008 108.684L47.0127 108.326C46.9036 107.877 46.7913 107.426 46.6737 106.973L46.5248 106.41C46.418 106.007 46.3071 105.604 46.193 105.199L46.0979 104.852L46.0497 104.691C45.8401 103.963 45.6204 103.231 45.3899 102.496L45.2568 102.075C45.0174 101.322 44.7705 100.567 44.496 99.767L44.4234 99.5623C44.2356 99.019 44.0432 98.4771 43.845 97.9338L43.6481 97.3968C43.457 96.8792 43.2616 96.362 43.0634 95.8479L42.932 95.5074C42.692 94.89 42.4449 94.2748 42.193 93.6599L41.9999 93.1953C41.7999 92.7128 41.5963 92.2324 41.39 91.753L41.0368 90.9342C40.9115 90.6499 40.7838 90.3679 40.6561 90.0858L40.3099 89.3189C40.0218 88.6906 39.7291 88.0666 39.4308 87.446L39.2271 87.0304C38.9946 86.5509 38.7604 86.0749 38.5221 85.6023L38.1954 84.9622C37.9926 84.5662 37.7888 84.1716 37.5833 83.7823L37.4172 83.4616L37.2621 83.1797C36.914 82.53 36.563 81.8871 36.2079 81.2567L36.1042 81.0703C35.7182 80.3893 35.3272 79.723 34.9326 79.066L34.7977 78.8352L34.5695 78.4651C34.3792 78.1538 34.1891 77.8455 33.9974 77.5402C33.8609 77.3229 33.7243 77.1072 33.5878 76.8933C33.3937 76.5901 33.1991 76.292 33.0017 75.9935L32.7435 75.5959L32.5809 75.3587C32.4611 75.1802 32.1386 74.712 32.1386 74.712C31.9783 74.4784 31.817 74.2463 31.656 74.0184C31.5075 73.8087 30.9107 72.9806 30.9107 72.9806C30.9107 72.9806 30.458 72.3788 30.3329 72.2143C30.1554 71.9814 29.9787 71.7518 29.7999 71.5248C29.6743 71.3637 29.2132 70.7835 29.2132 70.7835L28.71 70.1816C25.562 71.7858 22.4632 73.4941 19.4387 75.3137C19.5024 75.3941 19.5661 75.4736 19.6298 75.5545C19.8112 75.7858 19.9918 76.0197 20.1737 76.2582C20.3016 76.4265 20.4299 76.5956 20.5572 76.7672C20.727 76.9952 20.8961 77.2282 21.0659 77.4614C21.2173 77.6709 21.3693 77.8805 21.5195 78.0938C21.6704 78.3066 21.8204 78.5239 21.9709 78.7413L22.5501 79.5886L17.8886 81.5829L17.9549 82.0954L14.5734 83.5414L14.428 82.8712L14.2891 82.2083C14.2338 81.9429 14.1787 81.6776 14.1274 81.4146C14.0647 81.0965 14.0061 80.7804 13.9487 80.4641L13.8639 79.9979C13.8041 79.6538 13.7501 79.3128 13.696 78.9716C9.79818 81.6035 6.06786 84.4485 2.56836 87.5292C2.69307 88.0426 2.82119 88.558 2.95649 89.0772L3.0215 89.3359C3.19765 90.006 3.38306 90.6787 3.57304 91.3494L3.68904 91.7449C3.91026 92.5124 4.14182 93.2822 4.38325 94.0553L4.54298 94.5693C4.81188 95.417 5.09137 96.2666 5.38147 97.1155L5.44466 97.3066L5.60269 97.7506C5.78306 98.2692 5.96649 98.7871 6.1545 99.3054L6.41703 100.024C6.62299 100.581 6.83335 101.137 7.04748 101.692L7.24707 102.215C7.52863 102.936 7.81737 103.657 8.11098 104.373L8.3181 104.867C8.54992 105.425 8.78443 105.983 9.02389 106.537L9.33229 107.244C9.55407 107.751 9.77933 108.255 10.0067 108.757L10.3041 109.412C10.6114 110.08 10.9225 110.745 11.2377 111.402L11.2899 111.512C11.624 112.206 11.964 112.892 12.3073 113.573L12.6194 114.186C12.868 114.671 13.118 115.154 13.3711 115.634L13.5587 115.995L13.6945 116.243C14.1202 117.04 14.5515 117.828 14.988 118.602L15.1718 118.922Z" fill="#D76800"/>
<path d="M27.1394 67.5781C36.6913 77.4698 46.3796 98.39 48.7794 114.31C51.1792 130.231 45.3805 135.113 35.8286 125.221C26.2766 115.33 16.5914 94.4124 14.1915 78.492C11.7917 62.5718 17.5874 57.6864 27.1394 67.5781ZM34.7398 113.784C37.9949 116.759 40.1151 116.301 39.2788 110.753C37.6995 100.276 29.3813 92.1384 28.5381 86.545C28.2338 84.5256 29.0935 84.3867 30.533 85.8774C31.8017 87.1911 32.5967 88.3689 33.288 89.7976C33.3503 90.0604 33.409 90.2814 33.4233 90.3764L33.8053 92.9106L35.8912 95.231L35.1804 88.4671C33.7772 86.5795 32.1716 84.44 30.6966 82.7143L30.1588 78.5086L28.3323 76.499L28.8731 80.7078C25.4813 77.3135 23.369 77.5053 24.1624 82.7687C25.8126 93.7155 34.0375 101.402 34.9726 107.605C35.3191 109.905 34.2567 109.64 32.9312 108.267C30.8468 106.108 29.6742 104.021 29.5046 103.685C29.2731 102.77 29.0587 101.835 29.0609 101.682C28.96 101.181 28.731 99.661 28.719 99.581L26.6831 97.2746L27.3792 104.26C27.4934 104.457 29.6629 108.211 32.9006 111.842L33.3516 115.321L35.2058 117.363L34.7398 113.784Z" fill="#FFE67A"/>
<path d="M36.2142 101.536C37.609 104.371 38.7801 107.445 39.2788 110.753C40.1152 116.301 37.9949 116.759 34.7397 113.784L35.2058 117.363L33.3516 115.321L32.9006 111.842C29.6629 108.211 27.4934 104.457 27.3792 104.26L26.6832 97.2747L28.7189 99.5812C28.731 99.6612 28.96 101.181 29.0609 101.682C29.0587 101.835 29.2731 102.77 29.5045 103.685C29.6742 104.021 30.8468 106.108 32.9311 108.267C34.2567 109.64 35.3191 109.905 34.9726 107.605C34.1366 102.059 27.4774 95.326 24.8956 86.1391C20.7814 79.7859 17.1855 73.0986 14.4652 66.0776C13.5138 68.7887 13.3601 72.9768 14.1915 78.4922C16.5913 94.4126 26.2766 115.33 35.8285 125.221C45.0586 134.78 50.7824 130.541 48.9926 115.88C44.554 111.26 40.2584 106.485 36.2142 101.536Z" fill="#FFD93B"/>
<path d="M26.5073 63.3844C37.4477 74.714 48.5439 98.6784 51.2926 116.913C54.0413 135.148 47.4011 140.745 36.4608 129.415C25.5203 118.086 14.424 94.1212 11.6753 75.8865C8.92668 57.6518 15.5668 52.0547 26.5073 63.3844ZM35.8286 125.221C45.3805 135.113 51.1792 130.231 48.7794 114.311C46.3796 98.3901 36.6913 77.4699 27.1394 67.5782C17.5875 57.6864 11.7917 62.5718 14.1916 78.4922C16.5914 94.4126 26.2766 115.33 35.8286 125.221Z" fill="#FFF2B4"/>
<path d="M49.7967 118.336C50.1823 124.058 49.2743 128.094 47.1479 129.881C45.8682 130.958 44.1826 131.188 42.2731 130.548C40.2246 129.861 37.9198 128.201 35.4224 125.615C25.8177 115.669 16.0426 94.568 13.6323 78.577C12.5084 71.1187 13.1386 65.7508 15.3996 63.3271C14.8826 62.0234 14.3872 60.7107 13.9058 59.3921C11.6397 61.8774 11.027 67.7852 12.2361 75.8017C14.9647 93.9077 26.0149 117.782 36.8682 129.021C39.5911 131.841 42.0663 133.637 44.2259 134.362C46.0149 134.962 47.5007 134.779 48.6414 133.82C50.9538 131.876 51.8125 126.838 51.0888 119.807C50.6574 119.318 50.224 118.829 49.7967 118.336Z" fill="#FDDE54"/>
<path d="M28.3324 76.4995L30.1589 78.5091L30.6968 82.7148C32.1717 84.4405 33.7773 86.58 35.1805 88.4675L35.8913 95.2315L33.8054 92.911L33.4234 90.3768C33.4091 90.2818 33.3504 90.0609 33.2881 89.798C32.5969 88.3693 31.8018 87.1916 30.5332 85.8778C29.0937 84.3871 28.2339 84.526 28.5383 86.5454C29.3814 92.1388 37.6996 100.276 39.2789 110.753C40.1152 116.302 37.995 116.759 34.7399 113.785L35.2059 117.364L33.3517 115.321L32.9008 111.842C29.663 108.211 27.4936 104.458 27.3793 104.26L26.6833 97.2751L28.7191 99.5815C28.7311 99.6615 28.9602 101.181 29.061 101.682C29.0588 101.836 29.2732 102.771 29.5047 103.685C29.6743 104.021 30.847 106.109 32.9313 108.267C34.2568 109.64 35.3193 109.905 34.9727 107.606C34.0376 101.402 25.8127 93.716 24.1626 82.7692C23.3693 77.5058 25.4814 77.314 28.8733 80.7083L28.3324 76.4995Z" fill="#FFF3A9"/>
<path d="M32.221 95.5546C30.4365 93.9372 28.6935 92.2858 27.0977 90.5371C28.3538 93.3669 29.8866 95.9522 31.3189 98.3617C33.3554 101.788 35.1144 104.748 35.5329 107.521C35.6985 108.622 35.5793 109.301 35.1567 109.655C34.9936 109.793 34.6374 109.995 34.0843 109.809C33.6414 109.661 33.1168 109.274 32.5244 108.661C30.1938 106.248 29.0106 103.963 28.9995 103.941L28.9713 103.885L28.9561 103.824C28.7633 103.062 28.5373 102.123 28.5 101.764C28.4219 101.365 28.2805 100.46 28.1848 99.8319L27.4209 98.9663L27.9304 104.081C28.3541 104.803 30.3911 108.177 33.3232 111.465L33.4398 111.596L33.8904 115.071L34.4117 115.646L33.9787 112.322L35.1215 113.366C36.0173 114.185 36.8213 114.728 37.4477 114.938C38.0794 115.15 38.3097 114.956 38.3852 114.892C38.6375 114.68 39.1747 113.861 38.7191 110.838C37.8427 105.021 34.8847 99.9978 32.221 95.5546Z" fill="#FFE162"/>
<path d="M32.7209 112.379C29.4832 108.748 27.3137 104.994 27.1995 104.797L26.718 99.9654L25.6071 98.7065L26.3031 105.692C26.4173 105.889 28.5868 109.643 31.8245 113.274L32.2755 116.753L34.1297 118.795L33.8435 116.598L33.1719 115.858L32.7209 112.379Z" fill="#BF5D00"/>
<path d="M28.3325 76.499L27.2562 77.9309L27.5475 80.1975C27.9103 80.4962 28.2921 80.8436 28.6935 81.2452L28.3325 76.499Z" fill="#BF5D00"/>
<path d="M26.0633 69.0097C35.6152 78.9014 45.3034 99.8217 47.7033 115.742C48.7756 122.856 48.2071 127.758 46.402 130.131C48.8966 128.287 49.8331 123.03 48.5998 114.847C46.1998 98.9271 36.5117 78.0068 26.9597 68.1151C21.6769 62.6444 17.5468 61.7014 15.3129 64.6377C17.6711 62.8949 21.4215 64.203 26.0633 69.0097Z" fill="#BF5D00"/>
<path d="M23.0863 84.2006C24.7365 95.1474 32.9613 102.834 33.8964 109.037C33.9381 109.314 33.9583 109.551 33.9613 109.756C34.6332 110.058 35.0219 109.663 34.7928 108.142C33.8577 101.939 25.6329 94.2527 23.9827 83.306C23.744 81.7225 23.7727 80.6063 24.0156 79.9004C23.0614 80.0785 22.6689 81.4316 23.0863 84.2006Z" fill="#BF5D00"/>
<path d="M38.1144 116.087C37.275 116.305 36.0363 115.671 34.5599 114.322L34.7974 116.145C36.4058 117.297 37.6062 117.36 38.1144 116.087Z" fill="#BF5D00"/>
<path d="M33.2435 90.9133C33.2292 90.8184 33.1706 90.5974 33.1081 90.3345C32.417 88.9059 31.6219 87.7281 30.3534 86.4144C29.0985 85.115 28.2848 85.0548 28.2981 86.3982C28.6164 86.5386 29.0084 86.8446 29.457 87.309C30.7255 88.6227 31.5206 89.8005 32.2117 91.2292C32.2742 91.492 32.3327 91.713 32.3471 91.808L32.7291 94.3422L34.8151 96.6627L35.8913 95.2307L33.6255 93.4476L33.2435 90.9133Z" fill="#BF5D00"/>
</svg>
