<svg width="220" height="226" viewBox="0 0 220 226" fill="none" xmlns="http://www.w3.org/2000/svg">
<path d="M118.852 226C117.204 226 115.554 225.576 114.083 224.728L5.2607 162.004C4.70834 161.686 4.37842 161.116 4.37842 160.479C4.37842 159.842 4.70834 159.273 5.26119 158.954L72.8784 119.98C72.9679 119.929 73.0784 119.929 73.168 119.98L186.615 185.369C187.167 185.688 187.497 186.257 187.497 186.894C187.497 187.532 187.167 188.101 186.615 188.42L123.623 224.728C122.151 225.576 120.502 226 118.852 226ZM73.0231 120.564L5.55025 159.454C5.1784 159.668 4.95692 160.051 4.95692 160.479C4.95692 160.907 5.1784 161.29 5.54976 161.504L114.372 224.228C117.135 225.82 120.568 225.821 123.333 224.228L186.325 187.919C186.697 187.705 186.919 187.322 186.919 186.894C186.919 186.467 186.697 186.083 186.325 185.87L73.0231 120.564Z" fill="#1F88E5"/>
<path d="M76.5551 91.5073L91.7157 1.71185L90.4967 1.19945L92.3285 0.151084L92.3254 0.161697C92.6808 -0.0744972 93.1834 -0.060088 93.7371 0.258959L214.901 70.0962C215.896 70.6696 216.649 72.1405 216.475 73.1688L201.193 163.678C201.113 164.15 200.88 164.462 200.555 164.599L200.557 164.6L198.764 165.634L198.457 163.963L198.559 163.994L78.1283 94.5799C77.1334 94.0065 76.3803 92.5356 76.5551 91.5073Z" fill="#FFE67A"/>
<path d="M214.226 72.5517L216.218 71.6719C216.442 72.1811 216.551 72.7168 216.475 73.1688L201.193 163.678C201.113 164.15 200.88 164.462 200.555 164.599L200.557 164.6L198.764 165.634L198.457 163.963L198.559 163.994L192.465 160.482L214.226 72.5517Z" fill="url(#paint0_linear)"/>
<path d="M76.2274 95.6685L197.392 165.506C198.327 166.045 199.128 165.734 199.293 164.767L214.574 74.2574C214.749 73.2291 213.995 71.7583 213.001 71.1849L91.8362 1.34764C90.9007 0.808465 90.0997 1.11982 89.9354 2.0867L74.6542 92.596C74.4794 93.6243 75.2325 95.0951 76.2274 95.6685Z" fill="#1B2338"/>
<g opacity="0.51">
<path d="M93.4201 7.125L210.213 74.4425L195.729 159.683L79.0153 92.411L93.4201 7.125Z" fill="#303A55"/>
</g>
<path d="M0.0635986 138.519L6.67592 141.967L72.9797 103.75C74.089 103.111 76.0267 103.191 77.3076 103.929L191.663 169.842C192.758 169.231 197.747 166.836 197.747 166.836L195.327 173.132C195.327 173.132 195.318 173.125 195.317 173.124C195.217 173.404 195.002 173.665 194.64 173.873L124.809 214.123C123.7 214.762 121.762 214.682 120.481 213.944L3.45904 146.494C2.933 146.191 2.61089 145.824 2.47738 145.452L2.46831 145.458L0.0635986 138.519Z" fill="url(#paint1_linear)"/>
<path d="M1.08588 139.604L121.018 208.731C122.331 209.488 124.316 209.57 125.453 208.915L197.021 167.664C198.158 167.009 198.016 165.864 196.703 165.108L76.7708 95.9807C75.4581 95.224 73.4722 95.1418 72.3354 95.7972L0.767469 137.048C-0.369351 137.703 -0.226773 138.848 1.08588 139.604Z" fill="#FFE67A"/>
<path d="M157.193 193.778V192.465C157.193 192.34 157.117 192.283 157.023 192.337L152.385 195.011C152.291 195.065 152.215 195.209 152.215 195.334V196.647C152.215 196.772 152.291 196.829 152.385 196.775L157.023 194.101C157.117 194.047 157.193 193.903 157.193 193.778Z" fill="#D76800"/>
<path d="M150.256 197.776V196.463C150.256 196.339 150.18 196.282 150.086 196.335L145.448 199.009C145.354 199.063 145.278 199.208 145.278 199.332V200.645C145.278 200.77 145.354 200.827 145.448 200.773L150.086 198.099C150.18 198.046 150.256 197.901 150.256 197.776Z" fill="#D76800"/>
<path d="M178.363 163.801L78.6992 106.356C78.0348 105.973 77.2161 105.973 76.552 106.357L41.062 126.856C40.5524 127.15 40.5528 127.885 41.0627 128.179L140.68 185.597C141.343 185.979 142.161 185.979 142.825 185.597L178.363 165.124C178.873 164.83 178.873 164.095 178.363 163.801Z" fill="#FFD93B"/>
<path d="M178.363 165.124L178.006 165.329L78.6993 108.091C78.0349 107.708 77.2162 107.708 76.552 108.092L41.4193 128.384L41.0626 128.179C40.5528 127.885 40.5525 127.15 41.062 126.856L76.552 106.357C77.2162 105.973 78.0349 105.973 78.6993 106.356L178.363 163.801C178.873 164.095 178.873 164.83 178.363 165.124Z" fill="#F38A08"/>
<path d="M73.8738 111.549L160.445 161.447L164.295 159.229L77.7231 109.33L73.8738 111.549Z" fill="#D76800"/>
<path d="M64.4368 116.988L145.638 163.791L149.487 161.573L68.2861 114.77L64.4368 116.988Z" fill="#D76800"/>
<path d="M58.2903 120.531L153.896 175.636L157.745 173.418L62.1396 118.312L58.2903 120.531Z" fill="#D76800"/>
<path d="M52.1438 124.074L147.749 179.179L151.599 176.961L55.9931 121.855L52.1438 124.074Z" fill="#D76800"/>
<path d="M45.9973 127.616L141.603 182.722L145.452 180.503L49.8466 125.398L45.9973 127.616Z" fill="#D76800"/>
<path d="M165.677 164.462L169.526 166.681L173.375 164.462L169.526 162.244L165.677 164.462Z" fill="#D76800"/>
<path d="M152.099 167.515L160.089 172.12L163.938 169.902L155.948 165.297L152.099 167.515Z" fill="#D76800"/>
<path d="M74.8618 177.702L47.9889 162.213C46.9386 161.607 46.9386 160.626 47.9888 160.02L66.3653 149.429C67.4156 148.823 69.1184 148.823 70.1689 149.429L97.0418 164.918C98.0921 165.523 98.0921 166.505 97.0418 167.11L78.6654 177.702C77.6151 178.307 75.9122 178.307 74.8618 177.702Z" fill="url(#paint2_linear)"/>
<path d="M97.0416 165.815L70.1688 150.326C69.1184 149.72 67.4156 149.72 66.3652 150.326L47.9888 160.918C47.6646 161.104 47.4528 161.329 47.3287 161.565C47.0509 161.036 47.2627 160.439 47.9888 160.021L66.3652 149.429C67.4156 148.823 69.1184 148.823 70.1688 149.429L97.0416 164.918C97.7678 165.336 97.9797 165.933 97.7018 166.462C97.5778 166.226 97.3659 166.002 97.0416 165.815Z" fill="#9198DB"/>
<g opacity="0.11">
<g opacity="0.11">
<path opacity="0.11" d="M196.942 108.232L170.069 92.7429C169.018 92.1374 169.018 91.1559 170.069 90.5506L188.445 79.9587C189.495 79.3533 191.198 79.3533 192.249 79.9588L219.121 95.4478C220.172 96.0532 220.172 97.0347 219.122 97.6401L200.745 108.232C199.695 108.837 197.992 108.837 196.942 108.232Z" fill="url(#paint3_linear)"/>
<path opacity="0.11" d="M219.121 96.3448L192.249 80.8557C191.198 80.2504 189.495 80.2504 188.445 80.8557L170.069 91.4477C169.744 91.6345 169.533 91.8588 169.408 92.0952C169.131 91.5658 169.342 90.9691 170.069 90.5506L188.445 79.9587C189.495 79.3533 191.198 79.3533 192.249 79.9587L219.121 95.4479C219.848 95.8663 220.059 96.463 219.782 96.9926C219.657 96.7561 219.446 96.5318 219.121 96.3448Z" fill="#9198DB"/>
<g opacity="0.11">
<path opacity="0.11" d="M230.935 133.761L230.578 133.967L131.271 76.7279C130.607 76.3449 129.788 76.3453 129.124 76.7289L93.9911 97.0216L93.6346 96.8161C93.1247 96.5222 93.1243 95.7877 93.6339 95.4932L129.124 74.9942C129.788 74.6106 130.607 74.6103 131.271 74.9933L230.935 132.438C231.445 132.732 231.445 133.467 230.935 133.761Z" fill="#9198DB"/>
<g opacity="0.11">
<path opacity="0.11" d="M102.922 94.0955L189.746 144.14L186.307 146.122L99.4824 96.0778L102.922 94.0955Z" fill="#24126A"/>
<path opacity="0.11" d="M112.07 88.8225L194.595 136.389L191.156 138.371L108.631 90.8048L112.07 88.8225Z" fill="#24126A"/>
<path opacity="0.11" d="M200.757 139.94L208.465 144.383L205.026 146.365L197.318 141.923L200.757 139.94Z" fill="#24126A"/>
<path opacity="0.11" d="M193.95 146.562L199.317 149.656L195.877 151.638L190.51 148.545L193.95 146.562Z" fill="#24126A"/>
<path opacity="0.11" d="M117.802 85.5186L214.197 141.079L210.758 143.062L114.363 87.501L117.802 85.5186Z" fill="#24126A"/>
<path opacity="0.11" d="M129.266 78.9106L225.661 134.471L222.222 136.454L125.827 80.8931L129.266 78.9106Z" fill="#24126A"/>
</g>
</g>
</g>
</g>
<path opacity="0.42" d="M132.182 158.684L158.019 142.812L99.9297 109.33L72.5154 127.726L132.182 158.684Z" fill="url(#paint4_radial)"/>
<path opacity="0.42" d="M158.019 142.812L163.938 105.489L109.425 74.272V114.728L158.019 142.812Z" fill="url(#paint5_radial)"/>
<path d="M103.72 56.1413L109.488 52.8254V52.8301C109.564 52.7804 109.664 52.7776 109.776 52.8421L182.04 94.494C182.276 94.6299 182.467 94.9947 182.467 95.3086V108.927C182.467 109.078 182.421 109.187 182.349 109.248L182.351 109.249L182.346 109.251C182.341 109.256 182.334 109.258 182.328 109.262L176.503 112.612L176.457 106.032L109.776 67.598C109.54 67.4621 109.349 67.0973 109.349 66.7833V62.1095L103.72 56.1413Z" fill="url(#paint6_linear)"/>
<path d="M103.978 70.9291L176.242 112.581C176.478 112.717 176.669 112.573 176.669 112.259V98.6398C176.669 98.3258 176.478 97.961 176.242 97.825L103.978 56.1733C103.742 56.0373 103.551 56.1815 103.551 56.4956V70.1144C103.551 70.4283 103.742 70.7931 103.978 70.9291Z" fill="#FFE67A"/>
<path opacity="0.6" d="M113.946 68.1707L170.214 101.2C168.475 102.695 166.828 104.406 165.317 106.284L108.634 73.6125C110.265 71.5843 112.053 69.7464 113.946 68.1707Z" fill="#C86D10"/>
<path d="M106.04 66.8389L174.181 106.114C174.342 106.207 174.473 106.108 174.473 105.894V102.472C174.473 102.258 174.342 102.008 174.181 101.915L106.04 62.64C105.879 62.547 105.748 62.6457 105.748 62.8604V66.2818C105.748 66.4965 105.879 66.7459 106.04 66.8389Z" fill="#262F47"/>
<path d="M106.04 62.64L107.426 63.4386V65.2855C107.426 65.5002 107.556 65.7496 107.718 65.8425L174.473 104.319V105.894C174.473 106.108 174.342 106.207 174.181 106.114L106.04 66.8388C105.879 66.7458 105.748 66.4965 105.748 66.2818V62.8603C105.748 62.6457 105.879 62.547 106.04 62.64Z" fill="#D76800"/>
<path opacity="0.96" d="M67.7602 214.2L11.0721 181.526H11.0722C18.3853 177.31 24.5488 168.085 26.4318 159.263C27.1951 155.688 29.387 152.582 32.5581 150.754L75.3949 126.067C87.326 119.191 95.0603 106.81 95.8711 93.0803C96.5557 81.4876 105.334 70.0874 112.148 66.1599L168.836 98.834H168.836C162.124 102.703 154.734 113.516 153.893 124.912C152.879 138.641 145.399 151.067 133.457 157.949L89.2461 183.428C86.0749 185.256 83.883 188.362 83.1199 191.937C81.2369 200.759 75.0732 209.985 67.7602 214.2Z" fill="url(#paint7_linear)"/>
<g opacity="0.32">
<path opacity="0.32" d="M129.985 107.304L137.331 111.538V110.721L129.985 106.487V107.304Z" fill="#4553C7"/>
<path opacity="0.32" d="M126.218 105.132L128.863 106.657V105.84L126.218 104.315V105.132Z" fill="#4553C7"/>
<path opacity="0.32" d="M123.298 103.45L125.095 104.486V103.668L123.298 102.633V103.45Z" fill="#4553C7"/>
<path opacity="0.32" d="M133.329 111.098L137.331 113.405V112.588L133.329 110.281V111.098Z" fill="#4553C7"/>
<path opacity="0.32" d="M127.301 107.624L132.206 110.451V109.634L127.301 106.806V107.624Z" fill="#4553C7"/>
<path opacity="0.32" d="M124.381 105.941L126.179 106.977V106.16L124.381 105.124V105.941Z" fill="#4553C7"/>
<path opacity="0.32" d="M121.603 104.339L123.4 105.375V104.558L121.603 103.522V104.339Z" fill="#4553C7"/>
<path opacity="0.32" d="M134.435 113.603L137.331 115.272V114.455L134.435 112.785V113.603Z" fill="#4553C7"/>
<path opacity="0.32" d="M132.323 112.385L133.313 112.956V112.138L132.323 111.568V112.385Z" fill="#4553C7"/>
<path opacity="0.32" d="M129.403 110.702L131.201 111.738V110.921L129.403 109.885V110.702Z" fill="#4553C7"/>
<path opacity="0.32" d="M126.642 110.977L137.331 117.139V116.322L126.642 110.16V110.977Z" fill="#4553C7"/>
<path opacity="0.32" d="M122.874 108.806L125.519 110.33V109.513L122.874 107.989V108.806Z" fill="#4553C7"/>
<path opacity="0.32" d="M134.435 117.336L137.331 119.006V118.188L134.435 116.519V117.336Z" fill="#4553C7"/>
<path opacity="0.32" d="M127.638 113.419L133.313 116.689V115.872L127.638 112.601V113.419Z" fill="#4553C7"/>
<path opacity="0.32" d="M124.719 111.736L126.516 112.772V111.954L124.719 110.918V111.736Z" fill="#4553C7"/>
<path opacity="0.32" d="M131.406 117.457L137.331 120.872V120.055L131.406 116.64V117.457Z" fill="#4553C7"/>
<path opacity="0.32" d="M125.998 114.34L130.283 116.81V115.993L125.998 113.523V114.34Z" fill="#4553C7"/>
<path opacity="0.32" d="M121.979 112.024L124.876 113.693V112.876L121.979 111.207V112.024Z" fill="#4553C7"/>
<path opacity="0.32" d="M135.33 121.586L137.331 122.739V121.922L135.33 120.768V121.586Z" fill="#4553C7"/>
<path opacity="0.32" d="M131.563 119.414L134.208 120.938V120.121L131.563 118.597V119.414Z" fill="#4553C7"/>
<path opacity="0.32" d="M126.178 116.311L130.44 118.767V117.95L126.178 115.493V116.311Z" fill="#4553C7"/>
<path opacity="0.32" d="M131.201 121.072L137.331 124.606V123.789L131.201 120.255V121.072Z" fill="#4553C7"/>
<path opacity="0.32" d="M124.334 117.115L130.078 120.425V119.608L124.334 116.297V117.115Z" fill="#4553C7"/>
<path opacity="0.32" d="M121.414 115.432L123.212 116.468V115.65L121.414 114.615V115.432Z" fill="#4553C7"/>
<path opacity="0.32" d="M118.613 113.817L120.41 114.853V114.035L118.613 113V113.817Z" fill="#4553C7"/>
<path opacity="0.32" d="M133.658 124.356L137.331 126.473V125.655L133.658 123.538V124.356Z" fill="#4553C7"/>
<path opacity="0.32" d="M115.084 98.7153L109.99 95.7794V94.9622L115.084 97.8981V98.7153Z" fill="#4553C7"/>
<path opacity="0.32" d="M113.993 99.9532L109.99 97.6461V96.8289L113.993 99.136V99.9532Z" fill="#4553C7"/>
<path opacity="0.32" d="M112.887 101.182L109.99 99.5129V98.6958L112.887 100.365V101.182Z" fill="#4553C7"/>
<path opacity="0.32" d="M114.203 103.808L109.99 101.38V100.562L114.203 102.991V103.808Z" fill="#4553C7"/>
<path opacity="0.32" d="M112.887 104.916L109.99 103.247V102.429L112.887 104.099V104.916Z" fill="#4553C7"/>
<path opacity="0.32" d="M113.664 107.23L109.99 105.113V104.296L113.664 106.413V107.23Z" fill="#4553C7"/>
<path opacity="0.32" d="M111.992 108.134L109.99 106.98V106.163L111.992 107.317V108.134Z" fill="#4553C7"/>
<path opacity="0.32" d="M113.869 111.082L109.99 108.847V108.03L113.869 110.265V111.082Z" fill="#4553C7"/>
<path opacity="0.32" d="M113.664 112.831L109.99 110.714V109.897L113.664 112.014V112.831Z" fill="#4553C7"/>
<path opacity="0.32" d="M130.974 122.808L132.536 123.709V122.891L130.974 121.991V122.808Z" fill="#4553C7"/>
<path opacity="0.32" d="M126.335 120.135L129.852 122.162V121.344L126.335 119.318V120.135Z" fill="#4553C7"/>
</g>
<path opacity="0.8" d="M112.148 66.1599L168.836 98.834C168.382 99.096 167.933 99.3801 167.486 99.6741L167.483 99.6708L110.802 66.9979C111.247 66.7046 111.695 66.4213 112.148 66.1599Z" fill="#D76800"/>
<defs>
<linearGradient id="paint0_linear" x1="216.499" y1="118.653" x2="192.465" y2="118.653" gradientUnits="userSpaceOnUse">
<stop stop-color="#D86B01"/>
<stop offset="1" stop-color="#FFD83A"/>
</linearGradient>
<linearGradient id="paint1_linear" x1="197.747" y1="158.937" x2="0.0636458" y2="158.937" gradientUnits="userSpaceOnUse">
<stop stop-color="#D76800"/>
<stop offset="1" stop-color="#FFD93B"/>
</linearGradient>
<linearGradient id="paint2_linear" x1="97.8295" y1="163.565" x2="47.2011" y2="163.565" gradientUnits="userSpaceOnUse">
<stop stop-color="#C0BFF6"/>
<stop offset="0.293761" stop-color="#C5C4F7"/>
<stop offset="0.639919" stop-color="#D3D2F9"/>
<stop offset="1" stop-color="#E9E9FD"/>
</linearGradient>
<linearGradient id="paint3_linear" x1="219.909" y1="94.0953" x2="169.281" y2="94.0953" gradientUnits="userSpaceOnUse">
<stop stop-color="#C0BFF6"/>
<stop offset="0.293761" stop-color="#C5C4F7"/>
<stop offset="0.639919" stop-color="#D3D2F9"/>
<stop offset="1" stop-color="#E9E9FD"/>
</linearGradient>
<radialGradient id="paint4_radial" cx="0" cy="0" r="1" gradientUnits="userSpaceOnUse" gradientTransform="translate(140.135 134.007) rotate(180) scale(56.7019 56.6071)">
<stop stop-color="#2B237C"/>
<stop offset="1" stop-color="#180D5B"/>
</radialGradient>
<radialGradient id="paint5_radial" cx="0" cy="0" r="1" gradientUnits="userSpaceOnUse" gradientTransform="translate(152.536 108.542) rotate(180) scale(43.4019 43.3293)">
<stop stop-color="#1B2338"/>
<stop offset="1" stop-color="#180D5B"/>
</radialGradient>
<linearGradient id="paint6_linear" x1="168.162" y1="121.051" x2="130.027" y2="52.2689" gradientUnits="userSpaceOnUse">
<stop offset="0.137207" stop-color="#F5A621"/>
<stop offset="0.189898" stop-color="#FFE67A"/>
<stop offset="0.381215" stop-color="#FFD93B"/>
</linearGradient>
<linearGradient id="paint7_linear" x1="52.4133" y1="210.567" x2="133.085" y2="67.3839" gradientUnits="userSpaceOnUse">
<stop stop-color="#E8A305"/>
<stop offset="0.132884" stop-color="#E8A305"/>
<stop offset="0.181278" stop-color="#FDDE54"/>
<stop offset="0.211702" stop-color="#FFF2B4"/>
<stop offset="0.257904" stop-color="#EFD86B"/>
<stop offset="0.514349" stop-color="#FFD93B"/>
<stop offset="0.621736" stop-color="#FFD93B"/>
<stop offset="0.754967" stop-color="#FFF2B4"/>
<stop offset="1" stop-color="#D27814"/>
</linearGradient>
</defs>
</svg>
