<svg width="220" height="268" viewBox="0 0 220 268" fill="none" xmlns="http://www.w3.org/2000/svg">
<g clip-path="url(#clip0)">
<path d="M108.43 169.362L97.5914 162.165L25.4243 270.021L36.2631 277.218L108.43 169.362Z" fill="url(#paint0_linear)"/>
<path d="M117.29 175.245L112.441 172.026L42.423 276.669L47.2718 279.889L117.29 175.245Z" fill="url(#paint1_linear)"/>
<path d="M93.5814 159.502L88.7327 156.282L16.224 264.647L21.0727 267.867L93.5814 159.502Z" fill="url(#paint2_linear)"/>
<path d="M93.2476 173.485C91.4667 170.717 89.5127 168.06 87.4006 165.535C85.2158 162.923 82.7481 160.124 81.9079 156.95L75.6871 163.87C75.6114 163.937 75.5433 164.009 75.4884 164.091C73.922 166.432 81.5306 174.226 92.4828 181.498C93.4926 182.169 94.4953 182.811 95.4852 183.423C95.8241 182.282 96.0078 181.114 95.9138 179.919C95.7296 177.58 94.5175 175.458 93.2476 173.485Z" fill="#F8D94F"/>
<path d="M115.15 190.427C115.205 190.345 115.246 190.255 115.278 190.159L131.002 157.355L100.033 136.79L81.908 156.95C82.7481 160.123 85.2159 162.923 87.4007 165.535C89.5128 168.06 91.4668 170.717 93.2477 173.484C94.5176 175.458 95.7297 177.579 95.9139 179.919C96.0079 181.113 95.8242 182.281 95.4853 183.423C105.233 189.453 113.728 192.552 115.15 190.427Z" fill="url(#paint3_linear)"/>
<path d="M117.429 75.1349C107.425 92.0299 96.6929 108.559 82.6122 122.175C76.9783 127.623 70.776 132.605 63.6902 135.964C58.7533 138.304 53.3475 139.817 47.9121 140.067L39.7545 153.116L39.7545 153.116C49.1386 159.347 61.0555 158.878 68.5952 151.922L137.431 88.4166L117.429 75.1349Z" fill="#D27814"/>
<path d="M63.6902 135.963C70.776 132.604 76.9783 127.623 82.6122 122.175C96.693 108.559 107.425 92.0299 117.429 75.1349L115.959 74.1589C105.483 67.2021 91.8892 69.721 85.6637 79.6792L47.9122 140.067C53.3475 139.817 58.7534 138.304 63.6902 135.963Z" fill="#E39607"/>
<path d="M171.623 156.378C178.429 147.71 185.235 139.042 192.04 130.373C190.509 125.802 187.411 121.605 182.905 118.613L161.433 104.355L130.189 189.069C136.921 187.725 143.396 184.559 148.952 180.456C157.854 173.884 164.796 165.075 171.623 156.378Z" fill="#E39607"/>
<path d="M192.04 130.373C185.235 139.042 178.429 147.71 171.624 156.378C164.796 165.075 157.854 173.884 148.952 180.456C143.396 184.559 136.921 187.725 130.189 189.069L129.077 192.084C125.533 201.693 129.683 212.831 139.067 219.062L189.446 148.594C193.34 143.148 194.069 136.432 192.04 130.373Z" fill="#D27814"/>
<path d="M98.9857 155.029C92.0402 149.407 87.1097 143.714 85.5394 139.536L81.9382 146.18C80.5702 148.591 83.0388 153.141 87.9543 158.218C89.639 157.294 91.4214 156.547 93.2973 156.06C95.1596 155.577 97.0746 155.306 98.9857 155.029Z" fill="#F8D94F"/>
<path d="M127.191 170.685C126.66 170.534 126.117 170.368 125.561 170.186C124.451 169.823 123.293 169.399 122.097 168.917C120.902 168.435 119.668 167.895 118.405 167.3C114.617 165.515 110.568 163.236 106.507 160.539C103.811 158.749 101.288 156.893 98.9857 155.029C97.0746 155.306 95.1596 155.577 93.2973 156.06C91.4214 156.547 89.639 157.294 87.9542 158.218C91.3023 161.677 95.7852 165.38 100.966 168.82C113.752 177.311 126.393 181.279 129.263 177.606L134.034 171.738C133.289 171.765 132.47 171.723 131.585 171.614C130.257 171.451 128.782 171.138 127.191 170.685Z" fill="url(#paint4_linear)"/>
<path d="M106.658 153.311C111.7 151.353 115.541 147.237 119.138 143.204C142.226 117.319 163.002 89.3916 181.184 59.8785C179.456 58.8871 177.724 57.8207 176.002 56.6768C166.595 50.4303 159.173 43.0561 154.738 36.5764C138.008 50.9711 124.599 67.4728 115.262 84.6996L85.5394 139.536C87.1097 143.714 92.0402 149.407 98.9857 155.029C101.599 154.651 104.205 154.264 106.658 153.311Z" fill="#FFF3A9"/>
<path d="M202.807 68.4959C196.509 67.2007 188.89 64.3012 181.184 59.8785C163.002 89.3916 142.226 117.319 119.138 143.204C115.541 147.237 111.7 151.353 106.658 153.311C104.206 154.264 101.599 154.651 98.9857 155.029C101.288 156.893 103.811 158.749 106.507 160.539C110.568 163.236 114.617 165.515 118.405 167.3C119.668 167.895 120.901 168.435 122.097 168.917C123.293 169.399 124.451 169.823 125.561 170.186C126.117 170.368 126.66 170.534 127.191 170.685C128.782 171.138 130.257 171.451 131.585 171.614C132.47 171.723 133.289 171.765 134.034 171.738L173.407 123.31C185.776 108.096 195.906 89.4174 202.807 68.4959Z" fill="#FFD93B"/>
<path fill-rule="evenodd" clip-rule="evenodd" d="M212.792 1.69266C213.236 25.2952 209.576 47.972 202.807 68.4959C196.508 67.2007 188.89 64.3012 181.184 59.8785C192.749 41.1057 203.264 21.6914 212.65 1.75011C212.674 1.74074 212.698 1.73103 212.721 1.72131C212.745 1.71162 212.768 1.70192 212.792 1.69257L212.792 1.69256L212.792 1.69266ZM212.65 1.75006C203.264 21.6914 192.749 41.1056 181.184 59.8785C179.456 58.887 177.724 57.8206 176.002 56.6768C166.595 50.4303 159.173 43.056 154.738 36.5764C171.114 22.4858 190.669 10.4185 212.65 1.75006Z" fill="url(#paint5_linear)"/>
<path opacity="0.3" d="M177.199 91.7386C175.714 85.9765 172.18 80.7217 166.826 77.1665C155.285 69.5033 139.678 72.6344 131.966 84.16C129.07 88.489 127.7 93.3865 127.729 98.2208C127.777 106.257 131.693 114.119 138.899 118.904C150.439 126.567 166.046 123.436 173.758 111.911C177.892 105.732 178.914 98.3966 177.199 91.7386Z" fill="#C86D10"/>
<path d="M157.138 101.168C165.477 98.5476 172.395 92.404 177.135 85.0587C175.65 79.2966 172.116 74.0417 166.762 70.4865C155.221 62.8234 139.614 65.9545 131.903 77.48C129.006 81.809 127.636 86.7066 127.665 91.5409C128.887 93.2093 130.185 94.8089 131.7 96.2145C138.323 102.36 148.494 103.885 157.138 101.168Z" fill="#E39607"/>
<path d="M177.135 85.0587C172.395 92.404 165.476 98.5476 157.138 101.168C148.494 103.885 138.323 102.36 131.7 96.2145C130.185 94.8089 128.887 93.2093 127.665 91.5409C127.713 99.5774 131.629 107.439 138.835 112.224C150.375 119.887 165.982 116.756 173.694 105.231C177.828 99.0522 178.85 91.7166 177.135 85.0587Z" fill="#D27814"/>
<path d="M167.428 78.3121L135.031 83.1437C134.457 84.3702 134.023 85.6351 133.721 86.9174L169.768 81.5412C169.107 80.3989 168.327 79.3148 167.428 78.3121Z" fill="#262F47"/>
<path d="M169.769 81.541L133.721 86.9172C133.309 88.6633 133.146 90.4417 133.22 92.2034L171.778 86.4528C171.337 84.7407 170.664 83.0869 169.769 81.541Z" fill="#FFF3A9"/>
<path d="M163.687 75.082C154.688 69.1064 142.518 71.548 136.504 80.5354C135.939 81.3796 135.449 82.2516 135.031 83.1435L167.428 78.3119C166.347 77.1079 165.098 76.0192 163.687 75.082Z" fill="#FFF3A9"/>
<path d="M166.04 105.73L144.286 108.975C151.545 112.459 160.191 111.098 166.04 105.73Z" fill="#262F47"/>
<path d="M169.092 102.175C170.315 100.348 171.183 98.3907 171.724 96.3824L136.142 101.689C137.572 103.99 139.503 106.03 141.91 107.628C142.68 108.14 143.475 108.585 144.286 108.975L166.04 105.73C167.171 104.692 168.201 103.507 169.092 102.175Z" fill="#FFF3A9"/>
<path d="M171.778 86.4529L133.22 92.2034C133.36 95.5442 134.358 98.8195 136.142 101.689L171.723 96.3824C172.609 93.0966 172.606 89.6739 171.778 86.4529Z" fill="#262F47"/>
<path d="M40.4009 179.771C41.8825 179.898 43.1896 178.803 43.3201 177.325C43.4507 175.847 42.3555 174.546 40.8738 174.419C39.3921 174.293 38.0851 175.388 37.9545 176.866C37.8239 178.344 38.9192 179.644 40.4009 179.771Z" fill="#D76800"/>
<path d="M9.21454 138.665C13.0473 138.993 16.4282 136.16 16.766 132.338C17.1038 128.515 14.2706 125.15 10.4378 124.822C6.6051 124.494 3.22421 127.327 2.8864 131.15C2.5486 134.973 5.38181 138.338 9.21454 138.665Z" fill="#D76800"/>
<path d="M171.797 233.82C175.63 234.148 179.011 231.315 179.348 227.493C179.686 223.67 176.853 220.305 173.02 219.977C169.187 219.649 165.807 222.482 165.469 226.305C165.131 230.128 167.964 233.493 171.797 233.82Z" fill="#D76800"/>
<path d="M212.589 175.049C214.559 175.218 216.296 173.762 216.47 171.797C216.643 169.832 215.187 168.103 213.217 167.935C211.248 167.766 209.51 169.222 209.336 171.187C209.163 173.152 210.619 174.881 212.589 175.049Z" fill="#D76800"/>
<path d="M118.863 207.532C120.833 207.7 122.571 206.244 122.745 204.279C122.918 202.315 121.462 200.585 119.492 200.417C117.522 200.248 115.785 201.704 115.611 203.669C115.437 205.634 116.894 207.363 118.863 207.532Z" fill="#D76800"/>
<path d="M42.203 118.655C44.5607 118.857 46.6405 117.114 46.8483 114.763C47.0561 112.411 45.3132 110.341 42.9555 110.14C40.5978 109.938 38.5181 111.681 38.3103 114.032C38.1025 116.384 39.8453 118.454 42.203 118.655Z" fill="#D76800"/>
</g>
<defs>
<linearGradient id="paint0_linear" x1="103.011" y1="165.764" x2="31.2239" y2="273.872" gradientUnits="userSpaceOnUse">
<stop stop-color="#C8D3D5"/>
<stop offset="1" stop-color="#C8D3D5" stop-opacity="0"/>
</linearGradient>
<linearGradient id="paint1_linear" x1="114.866" y1="173.636" x2="45.2163" y2="278.524" gradientUnits="userSpaceOnUse">
<stop stop-color="#C8D3D5"/>
<stop offset="1" stop-color="#C8D3D5" stop-opacity="0"/>
</linearGradient>
<linearGradient id="paint2_linear" x1="91.157" y1="157.892" x2="19.0304" y2="266.511" gradientUnits="userSpaceOnUse">
<stop stop-color="#C8D3D5"/>
<stop offset="1" stop-color="#C8D3D5" stop-opacity="0"/>
</linearGradient>
<linearGradient id="paint3_linear" x1="165.968" y1="209.107" x2="93.9264" y2="155.825" gradientUnits="userSpaceOnUse">
<stop offset="0.6134" stop-color="#F38A08"/>
<stop offset="1" stop-color="#F8D94F"/>
</linearGradient>
<linearGradient id="paint4_linear" x1="169.376" y1="208.44" x2="99.725" y2="156.926" gradientUnits="userSpaceOnUse">
<stop offset="0.6134" stop-color="#F38A08"/>
<stop offset="1" stop-color="#F8D94F"/>
</linearGradient>
<linearGradient id="paint5_linear" x1="271.577" y1="81.7212" x2="179.929" y2="19.3409" gradientUnits="userSpaceOnUse">
<stop offset="0.6134" stop-color="#F38A08"/>
<stop offset="1" stop-color="#F8D94F"/>
</linearGradient>
<clipPath id="clip0">
<rect width="220" height="268" fill="white"/>
</clipPath>
</defs>
</svg>
