<svg width="28" height="28" viewBox="0 0 28 28" fill="none" xmlns="http://www.w3.org/2000/svg">
<circle cx="14" cy="14" r="14" fill="#848FAA"/>
<path fill-rule="evenodd" clip-rule="evenodd" d="M16.6678 19.9425C17.5065 20.3095 17.8211 19.5406 17.8211 19.5406L20.0403 8.39216C20.0228 7.64078 19.0093 8.09511 19.0093 8.09511L6.58525 12.9704C6.58525 12.9704 5.99114 13.1801 6.04356 13.547C6.09598 13.914 6.56778 14.0887 6.56778 14.0887L9.69564 15.1372C9.69564 15.1372 10.6392 18.2301 10.8315 18.8242C11.0062 19.4008 11.1635 19.4183 11.1635 19.4183C11.3382 19.4882 11.4955 19.3659 11.4955 19.3659L13.5225 17.5311L16.6678 19.9425ZM17.2095 10.3667C17.2095 10.3667 17.6463 10.1046 17.6289 10.3667C17.6289 10.3667 17.6988 10.4017 17.4716 10.6463C17.2619 10.856 12.3167 15.2944 11.6527 15.8885C11.6003 15.9235 11.5654 15.9759 11.5654 16.0458L11.3731 17.6884C11.3382 17.8631 11.111 17.8806 11.0586 17.7233L10.2373 15.0323C10.2024 14.9275 10.2373 14.8051 10.3422 14.7352L17.2095 10.3667Z" fill="#1B2338"/>
</svg>
