<svg width="28" height="28" viewBox="0 0 28 28" fill="none" xmlns="http://www.w3.org/2000/svg">
<circle cx="14" cy="14" r="14" fill="#848FAA"/>
<path fill-rule="evenodd" clip-rule="evenodd" d="M21.6329 10.2674C21.7442 9.89659 21.6329 9.62402 21.1035 9.62402H19.3531C18.908 9.62402 18.703 9.85945 18.5917 10.1191C18.5917 10.1191 17.7015 12.2888 16.4404 13.6981C16.0325 14.1061 15.847 14.2357 15.6245 14.2357C15.5132 14.2357 15.3522 14.1061 15.3522 13.7352V10.2674C15.3522 9.82232 15.223 9.62402 14.8521 9.62402H12.1014C11.8234 9.62402 11.6561 9.83057 11.6561 10.0264C11.6561 10.4483 12.2865 10.5456 12.3515 11.7324V14.3101C12.3515 14.8752 12.2495 14.9778 12.0269 14.9778C11.4335 14.9778 9.99018 12.7983 9.13398 10.3046C8.96619 9.81982 8.7979 9.62402 8.35055 9.62402H6.60014C6.10002 9.62402 6 9.85945 6 10.1191C6 10.5827 6.59351 12.8823 8.76314 15.9235C10.2097 18.0002 12.2475 19.1262 14.1019 19.1262C15.2147 19.1262 15.3522 18.8762 15.3522 18.4455V16.8757C15.3522 16.3756 15.4576 16.2758 15.8098 16.2758C16.0696 16.2758 16.5146 16.4056 17.5532 17.407C18.74 18.5936 18.9355 19.1262 19.6032 19.1262H21.3536C21.8537 19.1262 22.1038 18.8762 21.9595 18.3827C21.8017 17.8908 21.2351 17.1774 20.4831 16.3315C20.0752 15.8492 19.4631 15.33 19.2779 15.0704C19.0182 14.7366 19.0923 14.5883 19.2779 14.2917C19.2779 14.2917 21.4103 11.2875 21.6329 10.2675V10.2674Z" fill="#1B2338"/>
</svg>
